<svg width="2323" height="1065" viewBox="0 0 2323 1065" fill="none" xmlns="http://www.w3.org/2000/svg">
<path d="M1050.31 0C1047.92 0.0821151 1045.94 1.13698 1044.35 3.15829C1042.77 5.17959 1041.94 7.69991 1041.89 10.7571L1041.96 12.1973C1042.33 15.1408 1043.4 17.4969 1045.16 19.2466C1045.76 19.8467 1046.39 20.3141 1047.06 20.6678H1046.99C1046.99 101.779 1046.99 182.89 1046.99 264.001H1046.92C1044.23 267.216 1041.54 270.451 1038.85 273.672C1038.14 295.193 1037.43 316.719 1036.71 338.221H1017V324.217H1011.22V345.807H1036.46C1036.02 359.116 1035.57 372.438 1035.13 385.747H1002.63V365.521H994.276V396.694H1034.77C1034.24 412.706 1033.71 428.731 1033.17 444.756H1033.11L1002.94 445.856L997.223 464.723L1031.51 496.938H1031.44C1031.23 503.488 1031.01 510.019 1030.79 516.57L1016.75 515.66L1016.69 549.605L1029.08 570.267H1029.01C1028.31 591.143 1027.62 612.038 1026.93 632.915H1026.86L1015.01 647.177L1008.6 698.828L895.793 732.35L873.371 709.484L787.112 712.257V712.251C787.112 698.424 787.112 684.603 787.112 670.776L763.001 598.211L749.058 598.23L748.988 598.211C748.988 553.225 748.988 508.238 748.988 463.251L740.746 463.239C740.746 442.116 740.746 421 740.746 399.865H740.816C751.97 399.865 763.12 399.865 774.274 399.865C774.274 386.461 774.274 373.07 774.274 359.666H740.746C740.746 358.068 740.746 356.451 740.746 354.846H737.051C737.051 356.451 737.051 358.068 737.051 359.666H703.524C703.524 373.07 703.524 386.461 703.524 399.865H737.051C737.051 421 737.051 442.116 737.051 463.251L736.982 463.239L728.809 463.251C728.809 508.238 728.809 553.225 728.809 598.211H714.787L690.685 670.776C690.685 685.633 690.685 700.489 690.685 715.352L690.611 715.346L680.477 715.674L651.184 740.568L620.926 741.49V741.484L627.964 725.939C627.994 725.876 628.004 725.8 627.989 725.724C627.974 725.655 627.934 725.591 627.885 725.554L619.95 719.711L621.669 715.914C621.718 715.807 621.733 715.674 621.708 715.548C621.679 715.428 621.619 715.321 621.53 715.258L598.979 698.658L576.427 682.051C576.368 682.007 576.303 681.988 576.239 681.988C576.11 681.988 575.981 682.07 575.912 682.228L574.193 686.024L561.92 676.985C561.885 676.96 561.845 676.947 561.811 676.947C561.731 676.947 561.657 676.998 561.617 677.093L560.072 680.497L543.999 668.666L508.099 642.225C508.064 642.213 508.03 642.194 507.99 642.194C507.911 642.194 507.837 642.244 507.797 642.326L507.366 643.293V643.28C504.86 641.89 501.011 639.995 499.55 639.995H499.53C499.322 639.995 499.169 640.027 499.07 640.109C498.985 641.322 502.844 645.314 505.375 647.708H505.37L504.488 649.647C501.977 648.245 498.119 646.35 496.662 646.35C496.449 646.35 496.291 646.382 496.192 646.483L496.187 646.495C496.123 647.695 499.966 651.687 502.492 654.063H502.487L501.606 656.021C499.099 654.612 495.246 652.723 493.785 652.723H493.78C493.567 652.723 493.408 652.755 493.309 652.837C493.225 654.05 497.083 658.042 499.61 660.436H499.605L498.728 662.375H498.723C496.212 660.967 492.353 659.078 490.897 659.078C490.689 659.078 490.526 659.128 490.426 659.204C490.342 660.404 494.201 664.415 496.727 666.79L495.845 668.749H495.84C493.329 667.34 489.475 665.451 488.019 665.451C487.806 665.451 487.643 665.483 487.549 665.578H487.544C487.46 666.771 491.318 670.776 493.849 673.158H493.844L493.418 674.099C493.359 674.238 493.393 674.408 493.497 674.484C510.823 687.243 528.144 699.997 545.47 712.756L545.465 712.762L543.925 716.161C543.865 716.293 543.9 716.47 544.009 716.546L548.095 719.559V737.94H540.656C540.294 737.94 540.002 738.313 540.002 738.768V741.686H532.236L500.521 741.692V741.686C500.521 740.17 500.521 738.654 500.521 737.132L499.08 737.138H497.638C497.638 739.829 497.638 742.526 497.638 745.223L497.564 745.217L458.038 746.417L466.107 785.795L475.656 790.399L457.503 850.925L435.492 853.3L396.927 898.426H396.852C376.926 899.626 357.005 900.832 337.078 902.039V902.032L334.146 889.279L344.934 888.711L345.028 889.115C345.132 889.557 345.37 889.917 345.692 890.119L361.091 899.866C361.269 899.979 361.463 900.036 361.661 900.036C361.68 900.036 361.695 900.036 361.71 900.036L361.72 900.043C362.067 900.017 362.394 899.822 362.627 899.487C362.859 899.158 362.978 898.716 362.953 898.274L362.042 881.756L361.126 853.376L355.479 853.673C355.563 856.281 355.648 858.884 355.732 861.493V861.499L341.234 859.067L341.1 854.955C341.09 854.69 340.996 854.431 340.843 854.254C340.699 854.083 340.506 853.988 340.308 853.988C340.298 853.988 340.288 853.988 340.278 853.988L333.799 854.33C333.369 854.349 333.027 854.822 333.047 855.372L333.076 856.288L308.9 857.557C308.93 858.467 308.955 859.377 308.984 860.286L295.012 861.025C295.071 862.87 295.131 864.714 295.19 866.552L295.126 866.558L289.172 867.79C288.929 867.841 288.756 868.112 288.766 868.422L288.84 870.626L277.72 871.207L277.715 870.948C277.711 870.866 277.686 870.791 277.636 870.74C277.597 870.689 277.542 870.664 277.488 870.664C277.483 870.664 277.483 870.664 277.478 870.664L277.468 870.658L266.437 871.239C266.308 871.245 266.204 871.384 266.209 871.549L266.219 871.814L230.052 873.715L230.042 873.469C230.042 873.311 229.987 873.166 229.893 873.058C229.809 872.957 229.7 872.9 229.581 872.9C229.576 872.9 229.571 872.907 229.561 872.907L226.372 873.071L223.177 873.241C222.919 873.254 222.726 873.526 222.736 873.848L222.929 879.886C222.939 880.209 223.142 880.455 223.39 880.455C223.395 880.455 223.4 880.455 223.41 880.455L229.794 880.12C229.918 880.114 230.032 880.044 230.116 879.931C230.2 879.817 230.24 879.659 230.24 879.507L230.23 879.261L266.398 877.36L266.403 877.625C266.413 877.783 266.517 877.909 266.64 877.916L266.65 877.909L277.681 877.335C277.745 877.328 277.805 877.297 277.849 877.233C277.889 877.177 277.909 877.101 277.909 877.019L277.899 876.76C281.42 876.57 285.125 876.374 289.018 876.172L289.088 878.377C289.098 878.686 289.291 878.939 289.534 878.964L295.992 879.615L296.027 880.708C296.032 880.834 296.111 880.929 296.21 880.935L296.215 880.929L303.031 880.569L303.363 881.901C303.432 882.192 303.635 882.394 303.873 882.419C306.32 882.659 309.698 882.988 313.997 883.411L313.933 883.417C313.962 884.409 313.997 885.401 314.027 886.386C315.319 886.317 316.612 886.254 317.9 886.184H317.95H317.91L317.979 886.178V886.184L315.206 903.365L315.131 903.359C291.262 904.805 267.393 906.245 243.524 907.686C240.414 912.695 237.298 917.697 234.188 922.706L234.113 922.7L199.556 924.595V924.229L180.61 903.523H172.383V898.078C172.427 898.066 172.472 898.047 172.512 898.015L177.088 894.825C178.703 896.013 180.323 897.206 181.937 898.394L181.932 898.4L180.006 902.664C183.384 905.153 186.767 907.641 190.15 910.13C192.735 904.42 195.321 898.71 197.906 892.993L192.834 889.267L187.762 885.527L186.742 887.782C184.156 884.321 181.576 880.859 178.995 877.398C175.523 874.827 172.056 872.256 168.594 869.685H168.524C168.772 869.136 169.015 868.592 169.262 868.049L158.633 860.223L148.009 852.397C147.786 852.896 147.558 853.388 147.335 853.881H147.285C145.359 852.454 143.432 851.02 141.505 849.592L140.782 849.977L137.716 847.716C137.667 847.685 137.622 847.672 137.572 847.672C137.478 847.672 137.384 847.735 137.33 847.849L136.79 849.043C136.716 849.213 136.76 849.434 136.894 849.529C137.409 849.908 138.078 850.401 138.9 851.007L138.84 851.013L137.052 851.961L135.101 852.997L106.774 832.139C106.72 832.102 106.655 832.076 106.596 832.076C106.477 832.076 106.358 832.158 106.289 832.304L105.798 833.396L103.812 831.937L94.9213 825.387L95.1739 824.825C95.3026 824.541 95.3423 824.199 95.2729 823.877C95.2036 823.555 95.0401 823.284 94.8172 823.119L89.349 819.089L83.8808 815.066C83.7272 814.952 83.5588 814.895 83.3904 814.895C83.0536 814.895 82.7218 815.123 82.5434 815.521L80.3344 820.397C80.0669 820.991 80.2254 821.755 80.6959 822.102L91.6324 830.156C91.781 830.263 91.9494 830.32 92.1227 830.32C92.207 830.32 92.2912 830.308 92.3754 830.282C92.623 830.194 92.8409 829.985 92.9697 829.695L93.2223 829.133V829.139C96.848 831.805 100.479 834.47 104.099 837.142V837.148L103.609 838.235C103.51 838.45 103.569 838.721 103.738 838.848L128.627 857.172L128.538 857.513L127.988 859.484C130.97 861.96 133.947 864.436 136.924 866.912L136.859 866.918C136.745 867.177 136.626 867.436 136.507 867.695C139.187 869.673 141.867 871.643 144.546 873.614V881.579H144.482C144.066 882.4 143.65 883.222 143.229 884.049L143.214 886.367L143.209 887.637L139.479 887.643L139.474 887.637C139.172 887.637 138.93 887.953 138.93 888.338V896.272C138.93 896.638 139.143 896.935 139.415 896.973L139.356 896.979C139.356 899.158 139.356 901.344 139.356 903.529H134.987L116.041 924.229C116.041 925.871 116.041 927.52 116.041 929.168L115.967 929.162L2.69944 935.359L0 953.209L85.8571 1064.99H85.9314C758.087 1064.99 1430.24 1064.99 2102.39 1065V1064.99C2102.38 1030.11 2115.52 998.107 2141.81 968.975C2163.88 941.239 2224.27 887.725 2323 808.446H2322.94L1739.65 840.357V840.351C1739.65 839.46 1739.65 838.563 1739.65 837.666L1720.7 816.973L1716.34 816.967C1716.34 814.781 1716.34 812.602 1716.34 810.417H1716.28C1716.56 810.373 1716.77 810.076 1716.77 809.716V801.782C1716.77 801.397 1716.52 801.081 1716.23 801.081C1716.23 801.081 1716.23 801.081 1716.22 801.081L1712.49 801.075L1712.48 799.805L1712.46 797.487C1712.04 796.666 1711.62 795.844 1711.21 795.023L1711.15 795.017V787.058C1713.83 785.081 1716.51 783.11 1719.18 781.139C1719.07 780.874 1718.95 780.615 1718.83 780.356L1718.78 780.35C1721.74 777.874 1724.72 775.398 1727.7 772.922L1727.16 770.957L1727.07 770.616L1751.96 752.292C1752.13 752.165 1752.18 751.887 1752.09 751.673L1751.59 750.586V750.58C1755.22 747.914 1758.84 745.242 1762.47 742.577L1762.72 743.139C1762.85 743.423 1763.07 743.632 1763.32 743.72C1763.41 743.745 1763.48 743.764 1763.57 743.764C1763.75 743.764 1763.91 743.707 1764.07 743.594L1775 735.54C1775.47 735.199 1775.63 734.435 1775.36 733.835L1773.15 728.964C1772.97 728.56 1772.64 728.339 1772.3 728.339C1772.13 728.339 1771.97 728.396 1771.81 728.503L1766.35 732.533L1760.87 736.557C1760.64 736.721 1760.49 736.999 1760.42 737.315C1760.35 737.637 1760.39 737.978 1760.52 738.262L1760.77 738.831L1751.88 745.375L1749.89 746.834L1749.4 745.748C1749.33 745.602 1749.22 745.52 1749.09 745.52C1749.03 745.52 1748.98 745.539 1748.92 745.583L1720.59 766.434L1718.65 765.398L1716.86 764.451H1716.79C1717.62 763.845 1718.28 763.352 1718.8 762.973C1718.94 762.872 1718.98 762.657 1718.9 762.487L1718.35 761.286C1718.31 761.173 1718.22 761.11 1718.12 761.11C1718.08 761.11 1718.03 761.128 1717.98 761.16L1714.91 763.421V763.415L1714.18 763.03C1712.26 764.464 1710.33 765.891 1708.4 767.325L1708.35 767.319C1708.14 766.826 1707.91 766.333 1707.68 765.841L1697.06 773.667L1686.43 781.487C1686.67 782.03 1686.92 782.573 1687.17 783.123H1687.1C1683.64 785.694 1680.17 788.264 1676.7 790.835C1674.12 794.297 1671.53 797.758 1668.96 801.226V801.22L1667.93 798.971L1657.78 806.437C1660.37 812.147 1662.96 817.858 1665.55 823.568C1668.93 821.079 1672.3 818.59 1675.69 816.102L1673.76 811.838V811.832C1675.37 810.644 1677 809.457 1678.61 808.263L1683.18 811.459C1683.22 811.484 1683.27 811.503 1683.31 811.516V816.967L1675.08 816.961L1656.13 837.666V844.924L1643.39 845.619V845.613L1612.94 815.123L1582.99 816.626V816.62C1582.99 815.179 1582.99 813.746 1582.99 812.305H1580.11C1580.11 813.79 1580.11 815.28 1580.11 816.771L1580.04 816.765L1578.23 816.86L1548.39 816.853H1540.62V813.941C1540.62 813.48 1540.33 813.108 1539.97 813.108H1532.53V794.726L1536.62 791.713C1536.73 791.638 1536.75 791.461 1536.7 791.328L1535.15 787.93V787.923C1552.48 775.17 1569.8 762.411 1587.13 749.658C1587.23 749.575 1587.27 749.405 1587.21 749.266L1586.78 748.325C1589.31 745.95 1593.17 741.939 1593.08 740.745V740.739C1592.98 740.65 1592.82 740.612 1592.61 740.612C1591.15 740.612 1587.3 742.507 1584.78 743.909L1584.77 743.916L1583.9 741.964V741.958C1586.43 739.583 1590.29 735.578 1590.2 734.378C1590.1 734.289 1589.95 734.245 1589.73 734.245C1588.27 734.245 1584.42 736.14 1581.9 737.542V737.549L1581.02 735.597V735.591C1583.54 733.222 1587.4 729.211 1587.32 728.011C1587.22 727.929 1587.07 727.891 1586.86 727.891C1586.86 727.891 1586.86 727.891 1586.84 727.891V727.884C1585.38 727.884 1581.53 729.779 1579.02 731.182L1578.14 729.236L1578.13 729.23C1580.66 726.855 1584.51 722.856 1584.43 721.656V721.65C1584.34 721.561 1584.18 721.517 1583.96 721.517C1582.52 721.517 1578.65 723.412 1576.14 724.814V724.821L1575.25 722.869V722.863C1577.78 720.488 1581.64 716.483 1581.56 715.283C1581.47 715.201 1581.31 715.156 1581.12 715.156C1581.11 715.156 1581.11 715.156 1581.09 715.156H1581.08C1579.62 715.156 1575.77 717.051 1573.26 718.454L1572.83 717.506C1572.79 717.411 1572.71 717.361 1572.64 717.361C1572.6 717.361 1572.56 717.374 1572.53 717.399L1536.63 743.834L1520.55 755.665L1519.02 752.26C1518.96 752.165 1518.89 752.115 1518.81 752.115C1518.77 752.115 1518.75 752.127 1518.71 752.153L1506.44 761.192L1504.71 757.395C1504.65 757.244 1504.52 757.155 1504.38 757.155C1504.32 757.155 1504.26 757.174 1504.19 757.219L1481.65 773.825L1459.09 790.425C1459.02 790.488 1458.95 790.595 1458.93 790.722C1458.89 790.842 1458.9 790.974 1458.95 791.082L1460.67 794.878V794.884L1452.73 800.721C1452.69 800.759 1452.66 800.822 1452.64 800.891C1452.62 800.967 1452.64 801.043 1452.66 801.112L1462.41 822.658L1443.18 823.625L1402.73 780.464L1402.66 780.457C1402.66 769.428 1402.66 758.4 1402.66 747.377L1377.92 747.371C1377.92 732.698 1377.92 718.024 1377.92 703.351L1382.24 703.344C1382.24 699.681 1382.24 696.011 1382.24 692.341H1367.74C1367.74 684.704 1367.74 677.067 1367.74 669.443L1355.5 669.424C1355.5 666.582 1355.5 663.721 1355.5 660.872H1337.17C1337.17 653.286 1337.17 645.718 1337.17 638.151H1332.22C1332.22 645.718 1332.22 653.286 1332.22 660.872H1313.89C1313.89 663.721 1313.89 666.582 1313.89 669.443L1301.65 669.424C1301.65 670.486 1301.65 671.54 1301.65 672.602L1264.22 632.668L1257.76 632.927V632.915L1254.78 617.666H1254.84C1256.15 617.666 1257.44 617.666 1258.73 617.666C1258.73 616.662 1258.73 615.677 1258.73 614.691H1258.66C1262.96 614.028 1266.32 613.523 1268.75 613.169C1268.98 613.118 1269.18 612.91 1269.25 612.619L1269.52 611.28L1276.35 611.261C1276.45 611.261 1276.54 611.167 1276.54 611.034V609.935L1282.97 608.95C1283.21 608.918 1283.4 608.659 1283.4 608.337L1283.38 606.132C1287.29 606.132 1290.99 606.132 1294.52 606.132V606.41C1294.52 606.473 1294.54 606.556 1294.59 606.606C1294.63 606.669 1294.7 606.701 1294.75 606.701H1305.79C1305.93 606.701 1306.03 606.574 1306.03 606.41V606.151L1342.23 606.132V606.379C1342.23 606.537 1342.27 606.688 1342.36 606.796C1342.45 606.909 1342.56 606.979 1342.69 606.979H1349.08C1349.34 606.979 1349.54 606.701 1349.54 606.379V600.346C1349.54 600.024 1349.34 599.746 1349.08 599.746H1342.69C1342.56 599.746 1342.45 599.816 1342.36 599.923C1342.27 600.037 1342.23 600.182 1342.23 600.346V600.586H1306.03V600.327C1306.03 600.169 1305.93 600.037 1305.8 600.037C1305.8 600.037 1305.8 600.037 1305.79 600.037V600.024H1294.75C1294.7 600.024 1294.63 600.056 1294.59 600.119C1294.54 600.169 1294.52 600.252 1294.52 600.327V600.586H1283.38L1283.4 598.388C1283.4 598.066 1283.21 597.807 1282.97 597.776L1276.98 596.853H1276.9C1276.9 595.009 1276.9 593.164 1276.9 591.326L1262.93 591.307C1262.93 590.404 1262.93 589.494 1262.93 588.591H1238.73V587.669C1238.73 587.119 1238.38 586.665 1237.94 586.665H1231.46C1231.24 586.665 1231.05 586.766 1230.9 586.955C1230.75 587.151 1230.66 587.41 1230.66 587.669V591.794L1216.25 594.977C1216.25 592.356 1216.25 589.753 1216.25 587.151H1210.61V615.544L1210.23 632.106C1210.22 632.542 1210.35 632.978 1210.59 633.3C1210.84 633.609 1211.17 633.805 1211.51 633.805H1211.53C1211.74 633.805 1211.96 633.723 1212.15 633.59L1227.21 623.048C1227.53 622.84 1227.76 622.454 1227.84 622.012L1227.92 621.595H1238.73L1236.35 633.755L1209.17 634.822L1170.49 614.704L1152.08 439.482L1143 440.714L1074.07 443.253L1070.95 396.694H1104.43C1104.43 386.297 1104.43 375.918 1104.43 365.521H1096.08C1096.08 372.261 1096.08 379.007 1096.08 385.747H1070.23L1070.16 384.844L1067.56 345.807H1087.5C1087.5 338.613 1087.5 331.418 1087.5 324.217H1081.71C1081.71 328.879 1081.71 333.553 1081.71 338.221H1067.05L1060.96 247.149C1058.52 250.092 1056.07 253.023 1053.62 255.967C1053.62 177.521 1053.62 99.0944 1053.62 20.6552H1053.55C1054.91 19.9414 1056.05 18.8234 1056.98 17.3074C1057.42 16.5747 1057.78 15.7851 1058.07 14.9261L1058.43 13.5996C1058.63 12.6963 1058.73 11.7425 1058.73 10.7571C1058.67 7.69991 1057.85 5.17959 1056.26 3.15829C1054.68 1.13698 1052.69 0.0821151 1050.31 0ZM552.424 722.743L559.562 728.004L555.064 737.94H552.424V722.743ZM1708.1 789.3C1708.1 791.132 1708.1 792.958 1708.1 794.79H1708.04C1706.89 795.851 1705.75 796.918 1704.6 797.986L1700.69 797.979L1699.8 795.421C1702.56 793.381 1705.33 791.341 1708.1 789.3ZM1528.2 797.916V811.636H1524.89L1521.06 803.172L1528.2 797.916ZM147.597 875.863C150.366 877.903 153.135 879.937 155.904 881.977L154.997 884.542H151.089C149.945 883.474 148.801 882.413 147.657 881.346L147.597 881.352C147.597 879.52 147.597 877.688 147.597 875.863Z" fill="black"/>
</svg>
