<svg width="1580" height="396" viewBox="0 0 1580 396" fill="none" xmlns="http://www.w3.org/2000/svg">
<path d="M717.991 7.43797C716.359 7.4941 715.001 8.21518 713.918 9.59687C712.834 10.9786 712.272 12.7014 712.231 14.7912L712.286 15.7757C712.533 17.7878 713.264 19.3983 714.473 20.5943C714.879 21.0045 715.313 21.324 715.77 21.5658H715.722C715.722 77.0108 715.722 2.4562 715.722 57.9012H715.675C713.836 60.099 711.998 62.3097 710.159 64.5118C709.672 79.2225 709.184 93.9376 708.696 108.635H695.22V99.0629H691.266V113.821H708.524C708.219 122.919 707.918 132.025 707.616 141.123H685.398V127.297H679.686V148.605H707.369C707.004 159.551 706.641 170.505 706.276 181.46H706.232L685.608 182.211L681.7 195.108L705.138 217.129H705.094C704.945 221.607 704.796 226.071 704.647 230.549L695.048 229.927L695.01 253.131L703.475 267.255H703.428C702.954 281.525 674.974 274.833 674.5 289.104L800.147 246.038L695.22 192.419L645 218.97L612.363 208.05L597.035 192.419L538.069 194.315V194.31C538.069 184.859 538.069 175.411 538.069 165.96L521.586 116.357L512.055 116.369L512.008 116.357C512.008 85.6051 512.008 104.854 512.008 74.1022L506.373 74.0936C506.373 59.6548 506.373 45.2204 506.373 30.773H506.421C514.046 30.773 521.668 30.773 529.293 30.773C529.293 21.6106 529.293 12.4569 529.293 3.29449H506.373C506.373 2.20209 506.373 1.09672 506.373 0H503.847C503.847 1.09672 503.847 2.20209 503.847 3.29449H480.928C480.928 12.4569 480.928 21.6106 480.928 30.773H503.847C503.847 45.2204 503.847 59.6548 503.847 74.1022L503.8 74.0936L498.213 74.1022C498.213 104.854 498.213 85.6051 498.213 116.357H488.628L472.152 165.96C472.152 176.115 472.152 186.271 472.152 196.43L472.101 196.426L465.173 196.651L445.149 213.667L424.464 214.298V214.293L429.276 203.667C429.296 203.624 429.303 203.572 429.293 203.52C429.282 203.473 429.255 203.43 429.221 203.404L423.797 199.41L424.972 196.815C425.006 196.741 425.016 196.651 424.999 196.564C424.979 196.482 424.938 196.409 424.877 196.366L409.461 185.018L394.045 173.667C394.004 173.637 393.96 173.624 393.916 173.624C393.828 173.624 393.74 173.68 393.693 173.788L392.518 176.383L384.128 170.204C384.104 170.187 384.077 170.178 384.053 170.178C383.999 170.178 383.948 170.213 383.921 170.277L382.865 172.605L371.877 164.517L347.336 146.443C347.312 146.434 347.289 146.421 347.261 146.421C347.207 146.421 347.157 146.456 347.129 146.512L346.835 147.173V147.164C345.122 146.214 342.491 144.919 341.492 144.919H341.478C341.336 144.919 341.231 144.94 341.163 144.997C341.106 145.826 343.743 148.554 345.474 150.191H345.47L344.868 151.516C343.151 150.558 340.513 149.263 339.518 149.263C339.372 149.263 339.264 149.284 339.196 149.353L339.193 149.362C339.149 150.182 341.776 152.911 343.503 154.535H343.5L342.897 155.873C341.184 154.91 338.549 153.619 337.551 153.619H337.547C337.402 153.619 337.293 153.641 337.226 153.697C337.168 154.526 339.806 157.255 341.532 158.891H341.529L340.93 160.217H340.926C339.21 159.254 336.572 157.963 335.577 157.963C335.434 157.963 335.323 157.998 335.255 158.049C335.197 158.87 337.835 161.611 339.562 163.235L338.959 164.574H338.956C337.239 163.611 334.605 162.32 333.609 162.32C333.464 162.32 333.352 162.341 333.288 162.406H333.284C333.227 163.222 335.864 165.96 337.595 167.587H337.591L337.3 168.231C337.259 168.326 337.283 168.442 337.354 168.494C349.198 177.216 361.039 185.934 372.883 194.656L372.879 194.66L371.826 196.983C371.786 197.074 371.809 197.195 371.884 197.246L374.677 199.306V211.871H369.592C369.345 211.871 369.145 212.126 369.145 212.437V214.431H363.836L342.155 214.436V214.431C342.155 213.395 342.155 212.359 342.155 211.318L341.17 211.323H340.185C340.185 213.162 340.185 215.006 340.185 216.849L340.134 216.845L313.114 217.665L318.63 244.583L325.158 247.73L312.749 289.104L297.702 250.727L271.339 281.574H271.288C257.666 282.394 244.048 283.219 230.426 284.043V284.039L228.422 275.321L235.796 274.933L235.861 275.209C235.932 275.511 236.094 275.758 236.315 275.896L246.841 282.558C246.963 282.636 247.095 282.675 247.231 282.675C247.244 282.675 247.255 282.675 247.265 282.675L247.271 282.679C247.508 282.662 247.732 282.528 247.891 282.299C248.05 282.074 248.131 281.772 248.115 281.47L247.492 270.179L246.865 250.779L243.005 250.982C243.063 252.765 243.12 254.544 243.178 256.327V256.332L233.267 254.669L233.176 251.858C233.169 251.677 233.105 251.5 233 251.379C232.902 251.263 232.769 251.198 232.634 251.198C232.627 251.198 232.62 251.198 232.614 251.198L228.185 251.431C227.89 251.444 227.657 251.768 227.67 252.143L227.691 252.77L211.164 253.637C211.184 254.259 211.201 254.881 211.221 255.503L201.67 256.008C201.71 257.269 201.751 258.529 201.792 259.786L201.748 259.79L197.678 260.632C197.512 260.667 197.393 260.852 197.4 261.064L197.451 262.571L189.849 262.968L189.846 262.791C189.843 262.735 189.826 262.683 189.792 262.649C189.765 262.614 189.727 262.597 189.69 262.597C189.687 262.597 189.687 262.597 189.683 262.597L189.677 262.592L182.136 262.99C182.048 262.994 181.977 263.089 181.98 263.201L181.987 263.383L157.263 264.682L157.256 264.514C157.256 264.406 157.219 264.307 157.155 264.233C157.097 264.164 157.023 264.125 156.941 264.125C156.938 264.125 156.935 264.13 156.928 264.13L154.747 264.242L152.563 264.358C152.387 264.367 152.255 264.553 152.262 264.773L152.394 268.901C152.401 269.121 152.54 269.289 152.709 269.289C152.712 269.289 152.716 269.289 152.723 269.289L157.087 269.061C157.172 269.056 157.25 269.009 157.307 268.931C157.365 268.853 157.392 268.745 157.392 268.642L157.385 268.473L182.109 267.174L182.113 267.355C182.119 267.463 182.19 267.549 182.275 267.554L182.282 267.549L189.822 267.156C189.866 267.152 189.907 267.131 189.937 267.087C189.964 267.049 189.978 266.997 189.978 266.941L189.971 266.764C192.379 266.634 194.911 266.5 197.573 266.362L197.62 267.869C197.627 268.08 197.759 268.253 197.925 268.27L202.34 268.715L202.364 269.462C202.367 269.548 202.421 269.613 202.489 269.618L202.492 269.613L207.151 269.367L207.378 270.278C207.426 270.477 207.565 270.615 207.727 270.632C209.4 270.796 211.709 271.021 214.648 271.31L214.604 271.314C214.624 271.992 214.648 272.67 214.668 273.344C215.552 273.296 216.436 273.253 217.316 273.206H217.35H217.323L217.37 273.201V273.206L215.474 284.95L215.423 284.946C199.107 285.935 182.79 286.919 166.473 287.904C164.347 291.328 162.217 294.747 160.09 298.171L160.04 298.167L136.416 299.462V299.212L123.465 285.058H117.841V281.336C117.871 281.328 117.902 281.315 117.929 281.293L121.057 279.112C122.161 279.924 123.268 280.74 124.372 281.552L124.369 281.556L123.052 284.471C125.361 286.172 127.673 287.873 129.986 289.574C131.753 285.671 133.521 281.768 135.288 277.86L131.821 275.313L128.354 272.757L127.657 274.298C125.889 271.932 124.125 269.566 122.361 267.2C119.987 265.442 117.617 263.685 115.25 261.928H115.203C115.372 261.552 115.538 261.181 115.708 260.809L108.441 255.46L101.179 250.11C101.026 250.451 100.87 250.788 100.718 251.124H100.684C99.367 250.149 98.0499 249.168 96.7328 248.193L96.2384 248.456L94.1425 246.91C94.1087 246.889 94.0782 246.88 94.0443 246.88C93.98 246.88 93.9157 246.923 93.8784 247.001L93.5094 247.817C93.4586 247.934 93.489 248.085 93.5805 248.149C93.9326 248.409 94.3897 248.745 94.9518 249.16L94.9111 249.164L93.6888 249.812L92.3548 250.52L72.9906 236.263C72.9533 236.237 72.9093 236.219 72.8687 236.219C72.7874 236.219 72.7062 236.275 72.6588 236.375L72.3236 237.122L70.9658 236.124L64.8881 231.647L65.0607 231.262C65.1488 231.068 65.1759 230.835 65.1285 230.615C65.0811 230.395 64.9693 230.209 64.8169 230.097L61.0789 227.342L57.3408 224.591C57.2358 224.514 57.1207 224.475 57.0056 224.475C56.7754 224.475 56.5485 224.63 56.4266 224.902L54.9165 228.236C54.7336 228.642 54.842 229.164 55.1637 229.402L62.6398 234.907C62.7414 234.98 62.8565 235.019 62.975 235.019C63.0326 235.019 63.0901 235.01 63.1477 234.993C63.317 234.933 63.466 234.79 63.554 234.592L63.7267 234.207V234.212C66.2052 236.034 68.6871 237.856 71.1622 239.682V239.687L70.827 240.429C70.7593 240.576 70.7999 240.762 70.915 240.848L87.9293 253.374L87.8684 253.607L87.4926 254.954C89.5309 256.647 91.5658 258.339 93.6008 260.032L93.5568 260.036C93.4789 260.213 93.3976 260.39 93.3164 260.567C95.1482 261.919 96.9799 263.266 98.8117 264.613V270.058H98.7677C98.4833 270.619 98.1989 271.181 97.9111 271.746L97.9009 273.331L97.8975 274.199L95.3479 274.203L95.3445 274.199C95.138 274.199 94.9721 274.415 94.9721 274.678V280.101C94.9721 280.352 95.1177 280.555 95.3039 280.581L95.2633 280.585C95.2633 282.074 95.2633 283.568 95.2633 285.062H92.2769L79.3257 299.212C79.3257 300.335 79.3257 301.461 79.3257 302.588L79.2749 302.584L1.84533 306.82L0 319.022L58.6918 395.434H58.7426C518.227 395.434 977.712 395.434 1437.19 395.439V395.434C1437.19 371.591 1446.17 349.713 1464.14 329.799C1479.23 310.84 1494 304.439 1580 285.477L1479 281.876L1189.22 281.88V281.876C1189.22 281.267 1189.22 280.654 1189.22 280.041L1176.27 265.895L1173.29 265.891C1173.29 264.397 1173.29 262.908 1173.29 261.414H1173.25C1173.44 261.383 1173.58 261.18 1173.58 260.934V255.511C1173.58 255.248 1173.41 255.032 1173.21 255.032C1173.21 255.032 1173.21 255.032 1173.2 255.032L1170.65 255.028L1170.65 254.16L1170.64 252.575C1170.35 252.014 1170.06 251.452 1169.78 250.891L1169.74 250.887V245.446C1171.57 244.095 1173.4 242.748 1175.23 241.401C1175.15 241.219 1175.08 241.042 1174.99 240.865L1174.95 240.861C1176.98 239.168 1179.02 237.476 1181.05 235.783L1180.68 234.44L1180.62 234.207L1197.64 221.681C1197.75 221.595 1197.79 221.405 1197.72 221.258L1197.39 220.515V220.511C1199.86 218.689 1202.34 216.862 1204.82 215.04L1205 215.425C1205.08 215.619 1205.23 215.761 1205.4 215.822C1205.46 215.839 1205.51 215.852 1205.58 215.852C1205.7 215.852 1205.81 215.813 1205.91 215.735L1213.39 210.23C1213.71 209.997 1213.82 209.475 1213.63 209.064L1212.12 205.735C1212 205.459 1211.78 205.308 1211.54 205.308C1211.43 205.308 1211.31 205.347 1211.21 205.42L1207.48 208.175L1203.73 210.925C1203.57 211.038 1203.47 211.228 1203.42 211.444C1203.37 211.664 1203.4 211.897 1203.49 212.091L1203.66 212.48L1197.58 216.953L1196.22 217.951L1195.89 217.208C1195.84 217.109 1195.76 217.052 1195.68 217.052C1195.63 217.052 1195.6 217.065 1195.56 217.096L1176.19 231.349L1174.87 230.641L1173.64 229.993H1173.6C1174.16 229.578 1174.61 229.242 1174.97 228.983C1175.06 228.913 1175.09 228.767 1175.04 228.65L1174.67 227.83C1174.63 227.752 1174.57 227.709 1174.5 227.709C1174.48 227.709 1174.44 227.722 1174.41 227.743L1172.31 229.289V229.285L1171.81 229.021C1170.5 230.001 1169.18 230.977 1167.86 231.957L1167.83 231.953C1167.68 231.616 1167.52 231.28 1167.37 230.943L1160.11 236.293L1152.84 241.638C1153.01 242.009 1153.18 242.381 1153.34 242.756H1153.3C1150.93 244.514 1148.56 246.271 1146.19 248.028C1144.43 250.395 1142.65 252.761 1140.9 255.131V255.127L1140.19 253.59L1133.26 258.693C1135.03 262.597 1136.8 266.5 1138.56 270.403C1140.88 268.702 1143.18 267.001 1145.5 265.3L1144.18 262.385V262.381C1145.28 261.569 1146.39 260.757 1147.49 259.941L1150.62 262.126C1150.65 262.143 1150.68 262.156 1150.71 262.165V265.891L1145.08 265.887L1132.13 280.041V285.002L1123.42 285.477V285.472L1102.6 264.63L1082.13 265.658V265.654C1082.13 264.669 1082.13 263.689 1082.13 262.705H1080.16C1080.16 263.719 1080.16 264.738 1080.16 265.757L1080.12 265.753L1078.88 265.818L1058.48 265.813H1053.17V263.823C1053.17 263.508 1052.97 263.253 1052.72 263.253H1047.64V250.688L1050.43 248.629C1050.51 248.577 1050.52 248.456 1050.49 248.365L1049.43 246.042V246.038C1061.27 237.32 1073.11 228.598 1084.96 219.881C1085.03 219.824 1085.06 219.708 1085.01 219.613L1084.72 218.97C1086.45 217.346 1089.09 214.604 1089.03 213.788V213.784C1088.96 213.723 1088.85 213.697 1088.71 213.697C1087.71 213.697 1085.07 214.993 1083.36 215.951L1083.35 215.956L1082.75 214.621V214.617C1084.48 212.994 1087.12 210.256 1087.06 209.436C1086.99 209.375 1086.89 209.345 1086.74 209.345C1085.74 209.345 1083.11 210.64 1081.38 211.599V211.603L1080.78 210.269V210.265C1082.51 208.646 1085.14 205.904 1085.09 205.083C1085.02 205.027 1084.92 205.001 1084.78 205.001C1084.78 205.001 1084.77 205.001 1084.76 205.001V204.997C1083.77 204.997 1081.13 206.292 1079.42 207.251L1078.82 205.921L1078.81 205.917C1080.54 204.293 1083.17 201.56 1083.12 200.74V200.735C1083.06 200.675 1082.94 200.645 1082.79 200.645C1081.81 200.645 1079.16 201.94 1077.45 202.899V202.903L1076.84 201.569V201.564C1078.57 199.941 1081.21 197.203 1081.15 196.383C1081.09 196.327 1080.98 196.297 1080.85 196.297C1080.84 196.297 1080.84 196.297 1080.83 196.297H1080.83C1079.83 196.297 1077.19 197.592 1075.48 198.55L1075.18 197.903C1075.16 197.838 1075.11 197.803 1075.05 197.803C1075.03 197.803 1075 197.812 1074.98 197.829L1050.44 215.9L1039.44 223.987L1038.4 221.66C1038.36 221.595 1038.31 221.56 1038.26 221.56C1038.23 221.56 1038.22 221.569 1038.19 221.586L1029.8 227.765L1028.62 225.17C1028.58 225.066 1028.49 225.006 1028.39 225.006C1028.35 225.006 1028.31 225.019 1028.26 225.049L1012.85 236.4L997.432 247.748C997.381 247.791 997.337 247.864 997.32 247.951C997.293 248.033 997.303 248.123 997.337 248.197L998.516 250.792V250.796L993.088 254.786C993.054 254.812 993.037 254.855 993.02 254.902C993.01 254.954 993.02 255.006 993.037 255.053L999.704 269.781L986.553 270.442L958.904 240.939L958.859 240.934C958.859 233.395 958.859 225.856 958.859 218.322L941.947 218.317C941.947 208.287 941.947 198.257 941.947 188.227L944.896 188.222C944.896 185.718 944.896 183.209 944.896 180.701H934.989C934.989 175.48 934.989 170.26 934.989 165.048L926.615 165.036C926.615 163.093 926.615 161.137 926.615 159.189H914.091C914.091 154.004 914.091 148.831 914.091 143.658H910.701C910.701 148.831 910.701 154.004 910.701 159.189H898.173C898.173 161.137 898.173 163.093 898.173 165.048L889.803 165.036C889.803 165.761 889.803 166.482 889.803 167.207L864.223 139.91L859.801 140.087V140.079L857.766 129.655H857.81C858.7 129.655 859.584 129.655 860.468 129.655C860.468 128.969 860.468 128.295 860.468 127.622H860.417C863.356 127.168 865.651 126.823 867.317 126.581C867.473 126.547 867.612 126.404 867.656 126.205L867.846 125.29L872.508 125.277C872.579 125.277 872.64 125.212 872.64 125.122V124.37L877.035 123.697C877.197 123.675 877.33 123.498 877.33 123.278L877.319 121.771C879.991 121.771 882.52 121.771 884.931 121.771V121.961C884.931 122.004 884.948 122.06 884.982 122.095C885.009 122.138 885.053 122.16 885.087 122.16H892.637C892.732 122.16 892.8 122.073 892.8 121.961V121.784L917.548 121.771V121.939C917.548 122.047 917.575 122.151 917.636 122.224C917.697 122.302 917.775 122.35 917.859 122.35H922.227C922.41 122.35 922.542 122.16 922.542 121.939V117.816C922.542 117.596 922.41 117.406 922.227 117.406H917.859C917.775 117.406 917.697 117.453 917.636 117.527C917.575 117.604 917.548 117.704 917.548 117.816V117.98H892.8V117.803C892.8 117.695 892.732 117.604 892.644 117.604C892.644 117.604 892.644 117.604 892.637 117.604V117.596H885.087C885.053 117.596 885.009 117.617 884.982 117.661C884.948 117.695 884.931 117.751 884.931 117.803V117.98H877.319L877.33 116.477C877.33 116.257 877.197 116.08 877.035 116.059L872.941 115.428H872.891C872.891 114.167 872.891 112.907 872.891 111.65L863.339 111.637C863.339 111.02 863.339 110.398 863.339 109.781H846.792V109.15C846.792 108.774 846.558 108.464 846.253 108.464H841.825C841.676 108.464 841.547 108.533 841.442 108.662C841.34 108.796 841.279 108.973 841.279 109.15V111.97L831.43 114.146C831.43 112.354 831.43 110.575 831.43 108.796H827.573V128.205L827.312 139.526C827.306 139.824 827.394 140.122 827.556 140.342C827.729 140.554 827.956 140.687 828.189 140.687H828.2C828.345 140.687 828.494 140.631 828.623 140.541L838.919 133.334C839.136 133.192 839.292 132.928 839.353 132.626L839.407 132.341H846.792L845.17 140.653L826.585 141.383L800.147 127.63L787.562 7.85429L781.355 178.696L734.233 180.432L732.103 148.605H754.989C754.989 141.498 754.989 134.404 754.989 127.297H749.28C749.28 131.904 749.28 136.516 749.28 141.123H731.606L731.562 140.505L729.781 113.821H743.412C743.412 108.903 743.412 103.985 743.412 99.0629H739.454C739.454 102.249 739.454 105.445 739.454 108.635H729.432L725.274 46.3813C723.601 48.3934 721.929 50.3969 720.256 52.409C720.256 -1.21393 720.256 75.1758 720.256 21.5572H720.209C721.133 21.0693 721.912 20.305 722.548 19.2688C722.85 18.7679 723.097 18.2282 723.293 17.641L723.54 16.7342C723.676 16.1168 723.744 15.4648 723.747 14.7912C723.706 12.7014 723.144 10.9786 722.061 9.59687C720.977 8.21518 719.619 7.4941 717.991 7.43797ZM377.637 201.482L382.516 205.079L379.441 211.871H377.637V201.482ZM1167.65 246.979C1167.65 248.231 1167.65 249.479 1167.65 250.731H1167.61C1166.83 251.457 1166.05 252.186 1165.26 252.916L1162.59 252.912L1161.98 251.163C1163.87 249.768 1165.76 248.374 1167.65 246.979ZM1044.67 252.869V262.247H1042.41L1039.79 256.461L1044.67 252.869ZM100.897 266.15C102.79 267.545 104.683 268.935 106.576 270.33L105.956 272.083H103.285C102.502 271.353 101.72 270.628 100.938 269.898L100.897 269.903C100.897 268.65 100.897 267.398 100.897 266.15Z" fill="black"/>
</svg>
