<svg width="1981" height="384" viewBox="0 0 1981 384" fill="none" xmlns="http://www.w3.org/2000/svg">
<path d="M665.431 13.6025C665.431 16.0181 665.431 18.4338 665.431 20.8494L666.517 20.8647C666.517 47.3286 666.517 -1.39746 666.517 6.27164H664.577C664.577 14.1492 664.577 26.0421 664.577 33.9197H663.268C663.268 35.1967 663.268 36.4738 663.268 37.7509C662.071 36.92 660.876 36.0892 659.679 35.243L657.622 71.8914H640.278C640.278 76.2764 640.278 80.6615 640.278 85.0464C645.7 85.0464 651.125 85.0464 656.55 85.0464H656.604L655.291 102.032L640.278 102.048V115.187H654.277L650.316 166.438L642.013 175.909H629.564C629.564 180.371 629.564 184.833 629.564 189.295C621.534 189.171 613.508 189.064 605.482 188.956L582.417 237.822L575.898 251.632V251.638L542.772 252.186V252.192L542.499 252.083H542.495C539.222 243.11 535.949 234.137 532.676 225.164L532.729 225.17L564.257 238.531C564.28 238.542 564.302 238.548 564.326 238.548C564.344 238.548 564.368 238.542 564.39 238.531C564.409 238.525 564.432 238.513 564.451 238.494C564.507 238.44 564.553 238.35 564.569 238.248L575.021 176.493C575.04 176.386 575.032 176.278 574.998 176.186C574.964 176.093 574.906 176.032 574.842 176.001L564.74 171.708L565.756 165.723C565.788 165.539 565.768 165.354 565.712 165.2C565.654 165.046 565.559 164.939 565.449 164.877L536.739 152.707L508.021 140.521C507.983 140.506 507.949 140.506 507.911 140.506C507.873 140.506 507.835 140.506 507.801 140.521C507.656 140.583 507.535 140.767 507.493 141.013L506.479 147.014L490.848 140.383C490.826 140.367 490.802 140.367 490.784 140.367C490.761 140.367 490.738 140.367 490.715 140.367C490.631 140.413 490.559 140.521 490.537 140.66L489.625 146.045L469.162 137.367L423.449 117.981C423.43 117.965 423.407 117.965 423.385 117.965C423.362 117.965 423.339 117.965 423.321 117.981C423.237 118.012 423.164 118.119 423.138 118.258L422.887 119.75H422.883C420.621 119.212 417.503 118.642 415.362 118.642C414.576 118.642 413.924 118.719 413.49 118.904C413.259 119.012 413.088 119.135 413 119.304C413.187 120.981 418.366 124.658 421.706 126.735L421.182 129.812C418.92 129.274 415.799 128.705 413.657 128.705C412.872 128.705 412.219 128.782 411.789 128.966C411.554 129.059 411.387 129.197 411.299 129.366C411.482 131.043 416.665 134.721 420.005 136.798H420.002L419.481 139.875C417.215 139.336 414.098 138.767 411.957 138.767C411.171 138.767 410.518 138.844 410.085 139.013C409.853 139.121 409.682 139.259 409.595 139.429C409.781 141.106 414.96 144.783 418.301 146.86L417.777 149.937C415.514 149.399 412.393 148.83 410.256 148.83C409.47 148.83 408.817 148.906 408.384 149.076C408.148 149.183 407.981 149.306 407.894 149.476C408.076 151.168 413.259 154.845 416.601 156.907H416.597L416.076 160H416.073C413.809 159.446 410.692 158.877 408.551 158.877C407.766 158.877 407.112 158.953 406.683 159.138C406.447 159.246 406.28 159.369 406.19 159.538C406.376 161.215 411.558 164.908 414.896 166.969L414.641 168.462C414.603 168.677 414.687 168.908 414.819 168.954C436.878 178.309 458.941 187.679 480.999 197.034H480.995L480.085 202.419C480.047 202.634 480.13 202.85 480.263 202.911L485.472 205.111L489.732 230.272L481.519 233.752C481.125 233.921 480.886 234.569 480.995 235.201L481.672 239.191H481.668L473.11 242.822L447.327 253.76V253.766L437.5 253.923V253.928C437.36 253.092 437.22 252.257 437.08 251.428L435.488 252.101L433.901 252.774C433.97 253.177 434.038 253.58 434.103 253.983L434.05 253.989L301.427 256.176L297.973 249.367C297.949 249.312 297.923 249.264 297.893 249.217C297.768 249.018 297.6 248.91 297.425 248.91V248.917L290.147 248.91V245.718C290.147 245.412 290.072 245.118 289.935 244.901C289.799 244.685 289.612 244.564 289.422 244.564L289.419 244.57L289.142 244.564V236.709C289.142 236.552 289.118 236.403 289.073 236.271L288.06 233.254L288.116 233.26C288.393 233.471 288.67 233.686 288.944 233.903C288.993 233.938 289.046 233.957 289.096 233.957C289.168 233.957 289.24 233.921 289.301 233.855C290.128 232.875 290.96 231.901 291.791 230.927V230.933C292.125 231.234 292.46 231.541 292.794 231.847L292.79 231.853L292.577 232.437C292.536 232.55 292.558 232.695 292.631 232.761L295.873 235.723C295.896 235.748 295.922 235.76 295.945 235.76C295.96 235.76 295.975 235.754 295.987 235.748C296.025 235.729 296.059 235.694 296.078 235.64L296.294 235.045H296.298C296.591 235.315 296.883 235.58 297.175 235.849L297.171 235.855L297.05 236.337C296.955 236.716 297.019 237.148 297.213 237.419L300.793 242.394L304.374 247.366C304.4 247.407 304.43 247.438 304.46 247.467C306.856 249.74 309.252 252.011 311.652 254.289C311.656 254.295 311.66 254.295 311.664 254.302C311.754 254.385 311.861 254.428 311.967 254.428C312.047 254.428 312.13 254.403 312.206 254.349C312.389 254.229 312.521 253.977 312.563 253.669C313.676 245.664 314.781 237.702 315.885 229.767H315.881L318.141 223.584L318.706 222.026C318.733 221.954 318.74 221.87 318.725 221.793C318.714 221.708 318.679 221.642 318.634 221.6L310.319 214.003L304.058 208.281L304.104 208.161C304.149 208.034 304.123 207.867 304.044 207.794L300.49 204.557L299.126 203.311L299.749 201.603C299.764 201.557 299.768 201.511 299.761 201.465C299.753 201.419 299.734 201.372 299.708 201.357L298.421 200.172L297.133 199.003C297.114 198.988 297.095 198.972 297.077 198.972C297.039 198.972 297.001 199.003 296.977 199.065L295.657 202.68L294.533 201.665C294.457 201.588 294.377 201.557 294.297 201.557C294.134 201.557 293.974 201.695 293.888 201.942L293.868 201.988L293.219 201.388L291.723 200.018C291.701 200.003 291.677 199.988 291.651 199.988C291.602 199.988 291.556 200.034 291.53 200.111L290.926 201.757C290.884 201.865 290.91 202.003 290.978 202.065C291.693 202.726 292.41 203.373 293.124 204.034L293.025 204.296L291.294 202.711L287.407 199.157L287.126 197.403C287.11 197.326 287.068 197.234 287.015 197.188C287.011 197.188 287.011 197.188 287.007 197.188L284.206 194.941L284.778 193.356C284.81 193.279 284.79 193.187 284.744 193.141L281.187 189.895L277.626 186.633C277.611 186.617 277.596 186.617 277.576 186.617C277.572 186.617 277.572 186.617 277.569 186.617C277.534 186.617 277.504 186.648 277.489 186.694L276.764 188.679L274.688 186.787C274.672 186.771 274.656 186.756 274.638 186.756C274.604 186.756 274.57 186.787 274.551 186.833L274.281 187.587L272.28 185.756L272.33 185.617C272.341 185.586 272.337 185.556 272.314 185.525L270.864 184.202C270.856 184.202 270.848 184.186 270.842 184.186C270.826 184.186 270.81 184.202 270.804 184.233L270.458 185.171C270.446 185.202 270.454 185.248 270.477 185.263C270.959 185.71 271.445 186.156 271.927 186.587C271.935 186.602 271.942 186.602 271.95 186.602C271.965 186.602 271.981 186.587 271.988 186.571L272.037 186.433C272.706 187.048 273.37 187.648 274.038 188.264H274.034L273.973 188.433H273.563L267.811 183.602C267.781 183.586 267.743 183.555 267.705 183.555C267.701 183.555 267.697 183.555 267.693 183.555L258.206 184.463C258.175 184.463 258.149 184.479 258.123 184.494L243.847 171.447L243.926 171.231C243.956 171.154 243.964 171.062 243.95 170.954C243.934 170.862 243.896 170.785 243.843 170.739L242.104 169.154L240.365 167.57C240.331 167.539 240.289 167.508 240.251 167.508C240.175 167.508 240.1 167.585 240.058 167.693L239.978 167.923L229.5 158.338L198.226 129.751L198.332 129.474C198.397 129.289 198.416 129.074 198.381 128.874C198.347 128.674 198.264 128.489 198.15 128.397L195.033 125.551L191.919 122.704C191.839 122.627 191.753 122.597 191.669 122.597C191.498 122.597 191.331 122.735 191.236 122.981L189.178 128.628C189.041 129.012 189.122 129.489 189.361 129.705H189.365L195.591 135.397C195.667 135.474 195.754 135.505 195.842 135.505C195.884 135.505 195.928 135.505 195.97 135.474C196.099 135.428 196.21 135.29 196.274 135.121L196.38 134.828C210.296 147.537 224.214 160.261 238.132 172.985H238.129L238.049 173.201C237.989 173.37 238.023 173.585 238.132 173.693L241.61 176.863C241.645 176.893 241.683 176.909 241.725 176.909C241.743 176.909 241.763 176.909 241.781 176.909C241.839 176.878 241.888 176.816 241.918 176.74L241.998 176.524H242.002C246.945 181.032 251.892 185.556 256.835 190.079L257.671 196.08C257.686 196.172 257.727 196.249 257.78 196.31L272.166 209.248L272.394 210.704L272.386 210.71C270.442 211.533 268.502 212.356 266.562 213.18C266.301 213.287 266.149 213.709 266.217 214.123C266.771 217.386 267.185 219.839 267.462 221.474C267.496 221.673 267.576 221.84 267.69 221.942C267.762 222.014 267.85 222.051 267.933 222.051C267.974 222.051 268.016 222.039 268.058 222.02L272.546 220.122C272.546 220.122 272.953 219.946 273.772 219.599L274.148 222.008C274.168 222.153 274.228 222.273 274.308 222.345C274.311 222.351 274.319 222.357 274.327 222.363C275.037 222.922 275.75 223.487 276.46 224.051L272.348 236.271C272.303 236.403 272.28 236.552 272.28 236.709V244.564H272.003C271.601 244.564 271.274 245.081 271.274 245.718V248.91L263.996 248.917C263.799 248.91 263.608 249.053 263.483 249.301L259.645 256.862V256.868L0 261.153L118.912 383.603C716.489 383.603 1314.07 383.597 1911.65 383.597L1911.69 383.603C1938.13 317.203 1954.56 294.81 1981 228.415L1980.95 228.421L1677.32 233.428V233.434L1670.03 219.076C1669.91 218.829 1669.72 218.685 1669.52 218.685L1662.24 218.691V215.494C1662.24 214.857 1661.92 214.34 1661.51 214.34H1661.24V206.484C1661.24 206.328 1661.22 206.177 1661.17 206.045L1657.06 193.833C1657.77 193.264 1658.48 192.695 1659.19 192.141C1659.2 192.126 1659.21 192.125 1659.21 192.125C1659.28 192.049 1659.35 191.925 1659.37 191.787L1659.74 189.371C1660.57 189.725 1660.97 189.895 1660.97 189.895L1665.46 191.802C1665.5 191.818 1665.54 191.833 1665.58 191.833C1665.67 191.833 1665.75 191.787 1665.82 191.725C1665.94 191.618 1666.02 191.448 1666.05 191.248C1666.33 189.618 1666.75 187.156 1667.3 183.894C1667.37 183.494 1667.21 183.063 1666.95 182.956C1665.02 182.125 1663.07 181.294 1661.13 180.478H1661.12L1661.35 179.017L1675.74 166.092C1675.8 166.031 1675.83 165.939 1675.85 165.846L1676.68 159.861C1681.63 155.338 1686.58 150.814 1691.51 146.291L1691.6 146.522C1691.63 146.599 1691.68 146.66 1691.74 146.676C1691.76 146.691 1691.78 146.691 1691.8 146.691C1691.83 146.691 1691.87 146.675 1691.9 146.645L1695.38 143.46C1695.49 143.367 1695.53 143.152 1695.47 142.983L1695.39 142.767H1695.38C1709.3 130.043 1723.22 117.319 1737.14 104.595L1737.24 104.887C1737.31 105.072 1737.42 105.195 1737.55 105.257C1737.58 105.272 1737.63 105.287 1737.67 105.287C1737.76 105.287 1737.85 105.241 1737.92 105.18L1744.15 99.4868C1744.4 99.256 1744.48 98.7791 1744.34 98.4098L1742.28 92.7631C1742.19 92.5016 1742.02 92.3632 1741.85 92.3632C1741.76 92.3632 1741.68 92.3938 1741.6 92.4707L1738.49 95.3171L1735.37 98.1635C1735.25 98.2712 1735.17 98.4406 1735.13 98.6406C1735.1 98.856 1735.12 99.0713 1735.18 99.2405L1735.29 99.5329L1704.01 128.105L1693.54 137.69L1693.46 137.475C1693.42 137.352 1693.34 137.29 1693.26 137.29C1693.22 137.29 1693.19 137.305 1693.15 137.336L1691.42 138.936L1689.68 140.521C1689.62 140.567 1689.58 140.644 1689.57 140.736C1689.55 140.829 1689.56 140.921 1689.59 140.998L1689.67 141.229L1675.4 154.276C1675.37 154.261 1675.34 154.245 1675.31 154.245L1665.82 153.338C1665.82 153.338 1665.82 153.338 1665.81 153.338C1665.78 153.338 1665.74 153.353 1665.71 153.384L1659.95 158.215L1659.55 158.199L1659.48 158.03V158.046C1660.15 157.43 1660.81 156.815 1661.48 156.215V156.199L1661.53 156.338C1661.54 156.369 1661.55 156.384 1661.57 156.384C1661.58 156.384 1661.58 156.369 1661.59 156.369C1662.07 155.922 1662.56 155.476 1663.04 155.045C1663.06 155.015 1663.07 154.984 1663.05 154.953L1662.71 153.999C1662.7 153.984 1662.69 153.968 1662.68 153.968C1662.67 153.968 1662.66 153.968 1662.65 153.984L1661.2 155.307C1661.18 155.322 1661.17 155.368 1661.19 155.399L1661.24 155.538L1659.24 157.369L1658.96 156.615C1658.94 156.569 1658.91 156.538 1658.88 156.538C1658.86 156.538 1658.85 156.538 1658.83 156.553L1656.76 158.461L1656.03 156.476C1656.01 156.415 1655.97 156.384 1655.94 156.384V156.399H1655.93C1655.91 156.399 1655.9 156.399 1655.88 156.415L1648.77 162.923C1648.72 162.954 1648.71 163.062 1648.74 163.138L1649.31 164.708L1646.51 166.954C1646.5 166.954 1646.5 166.954 1646.49 166.954C1646.44 167.016 1646.41 167.093 1646.4 167.185L1646.11 168.939L1642.23 172.478L1640.49 174.078L1640.4 173.816H1640.39C1641.11 173.155 1641.83 172.493 1642.54 171.847C1642.6 171.785 1642.63 171.647 1642.6 171.539L1641.98 169.877C1641.96 169.816 1641.91 169.77 1641.87 169.77C1641.84 169.77 1641.82 169.785 1641.79 169.801L1640.3 171.17L1639.65 171.755L1639.63 171.708C1639.54 171.478 1639.38 171.339 1639.22 171.339C1639.14 171.339 1639.06 171.37 1638.98 171.447L1637.86 172.462L1636.54 168.847C1636.52 168.785 1636.48 168.754 1636.44 168.754C1636.42 168.754 1636.4 168.754 1636.38 168.785L1635.09 169.954L1633.81 171.124C1633.78 171.154 1633.76 171.185 1633.76 171.247C1633.75 171.278 1633.75 171.324 1633.77 171.37L1634.39 173.078L1633.03 174.324L1629.47 177.57C1629.4 177.647 1629.37 177.817 1629.42 177.94L1629.45 178.063L1623.19 183.786L1614.88 191.372C1614.84 191.418 1614.81 191.479 1614.79 191.572C1614.78 191.649 1614.78 191.725 1614.81 191.802L1615.38 193.356L1617.64 199.542C1618.73 207.476 1619.84 215.44 1620.95 223.445C1621 223.751 1621.12 224.004 1621.31 224.124C1621.39 224.177 1621.46 224.202 1621.55 224.202C1621.66 224.202 1621.77 224.161 1621.85 224.076C1621.85 224.07 1621.86 224.07 1621.86 224.064C1624.26 221.786 1626.66 219.514 1629.06 217.243C1629.09 217.212 1629.11 217.183 1629.14 217.14L1632.72 212.17L1636.31 207.193C1636.5 206.924 1636.56 206.49 1636.46 206.111L1636.35 205.631C1636.64 205.36 1636.93 205.096 1637.22 204.819L1637.43 205.414C1637.45 205.468 1637.49 205.511 1637.53 205.524C1637.54 205.528 1637.56 205.534 1637.57 205.534C1637.59 205.534 1637.62 205.524 1637.65 205.499L1640.88 202.542C1640.96 202.465 1640.98 202.326 1640.94 202.219L1640.73 201.634H1640.72C1641.06 201.326 1641.39 201.003 1641.72 200.711C1642.56 201.68 1643.38 202.649 1644.22 203.634C1644.28 203.696 1644.34 203.727 1644.42 203.727C1644.47 203.727 1644.52 203.711 1644.57 203.68C1644.85 203.45 1645.14 203.234 1645.42 203.003L1645.46 203.019L1644.44 206.045C1644.39 206.177 1644.37 206.328 1644.37 206.479V214.34H1644.1L1644.09 214.346L1644.08 214.352C1643.9 214.346 1643.71 214.466 1643.58 214.677C1643.44 214.892 1643.37 215.187 1643.37 215.494V218.685H1636.09V218.691L1636.08 218.697C1635.91 218.691 1635.74 218.799 1635.63 218.991C1635.6 219.04 1635.57 219.088 1635.55 219.142L1627.88 234.244V234.251L1468.53 236.877V236.883L1452.77 230.195L1444.21 226.558V226.564L1444.89 222.568C1445 221.936 1444.75 221.288 1444.37 221.119L1436.15 217.638L1440.41 192.479L1445.62 190.279C1445.76 190.218 1445.83 189.987 1445.79 189.787L1444.88 184.402C1466.94 175.032 1489.01 165.677 1511.06 156.322C1511.2 156.276 1511.27 156.046 1511.24 155.83L1510.99 154.338L1510.98 154.353C1514.33 152.261 1519.51 148.583 1519.69 146.906C1519.6 146.737 1519.43 146.614 1519.2 146.506C1518.77 146.322 1518.12 146.245 1517.33 146.245C1515.19 146.245 1512.07 146.829 1509.81 147.368L1509.28 144.291C1512.63 142.214 1517.81 138.521 1517.99 136.859V136.844C1517.9 136.675 1517.73 136.552 1517.49 136.444C1517.07 136.275 1516.41 136.182 1515.63 136.182C1513.49 136.182 1510.37 136.767 1508.11 137.305L1507.58 134.228C1510.92 132.151 1516.1 128.474 1516.29 126.797C1516.2 126.628 1516.03 126.489 1515.79 126.397C1515.37 126.212 1514.71 126.135 1513.93 126.135C1511.78 126.135 1508.67 126.704 1506.41 127.243H1506.4L1505.88 124.166H1505.87C1509.21 122.089 1514.39 118.411 1514.58 116.734C1514.49 116.565 1514.33 116.427 1514.09 116.334C1513.67 116.15 1513 116.073 1512.23 116.073C1510.08 116.073 1506.96 116.642 1504.69 117.181L1504.18 114.103H1504.17C1507.51 112.042 1512.69 108.349 1512.88 106.672C1512.79 106.503 1512.63 106.38 1512.39 106.272C1511.95 106.087 1511.3 106.01 1510.52 106.01C1508.38 106.01 1505.26 106.58 1502.99 107.118V107.134L1502.74 105.626C1502.71 105.487 1502.64 105.38 1502.56 105.349C1502.54 105.333 1502.52 105.333 1502.5 105.333C1502.47 105.333 1502.46 105.333 1502.43 105.349L1456.72 124.735L1436.26 133.413L1435.35 128.028C1435.33 127.889 1435.25 127.782 1435.16 127.751C1435.14 127.735 1435.12 127.735 1435.1 127.735C1435.08 127.735 1435.05 127.735 1435.03 127.751L1419.41 134.367L1418.38 128.382C1418.35 128.135 1418.22 127.951 1418.08 127.889C1418.04 127.874 1418.01 127.858 1417.97 127.858C1417.93 127.858 1417.9 127.874 1417.86 127.889L1389.15 140.075L1360.43 152.245C1360.32 152.291 1360.22 152.414 1360.16 152.568C1360.12 152.722 1360.1 152.907 1360.13 153.091L1361.14 159.092L1351.04 163.369C1350.97 163.4 1350.91 163.461 1350.88 163.554C1350.84 163.646 1350.84 163.754 1350.86 163.861L1361.31 225.615C1361.33 225.716 1361.37 225.807 1361.43 225.861C1361.45 225.879 1361.47 225.891 1361.49 225.904C1361.52 225.91 1361.54 225.915 1361.55 225.915C1361.57 225.915 1361.6 225.91 1361.62 225.904L1393.16 212.524H1393.21C1390.08 221.106 1386.95 229.695 1383.81 238.279L1383.77 238.283L1300.13 239.66C1300.13 232.509 1300.13 225.35 1300.13 218.205H1278.68C1278.68 213.312 1278.68 208.419 1278.68 203.527H1169.9H1169.85C1161.57 188.233 1153.28 172.939 1144.98 157.646C1119.51 157.815 1094.04 157.984 1068.56 158.138C1064.03 233.336 1059.5 210.534 1054.97 187.732L1054.91 187.748C1059.52 187.732 1064.14 187.732 1068.74 187.732C1068.74 180.67 1068.74 173.608 1068.74 166.546H1050.75C1048.47 155.052 1046.19 143.574 1043.9 132.081C1011.18 131.112 978.45 130.143 945.714 129.189H945.666V18.7492H892.125V127.604C883.479 127.342 874.835 127.096 866.189 126.835H866.136C866.136 94.1395 866.136 51.4443 866.136 18.7492H839.365H812.595C812.595 51.9367 812.595 95.1087 812.595 128.312H805.097C805.097 137.528 805.097 146.759 805.097 155.976H797.788C797.788 162.053 797.788 168.115 797.788 174.192C800.206 174.192 802.625 174.192 805.044 174.192H805.097C805.097 177.562 805.097 180.916 805.097 184.286H803.639H785.172C785.172 208.842 785.172 233.398 785.172 159.954H785.122C779.56 159.984 773.997 160.031 768.436 160.061L751.051 190.987C745.135 190.895 739.216 190.818 733.297 190.741H733.244C733.244 185.802 733.244 180.848 733.244 175.909H706.683H706.629C699.055 221.012 691.477 168.1 683.898 115.187H683.952H694.978V102.032L682.016 102.048C681.207 96.3859 680.394 90.7085 679.582 85.0464H679.548C684.692 85.0464 689.837 85.0464 694.978 85.0464C694.978 80.6615 694.978 76.2764 694.978 71.8914H677.732L677.698 71.9068C676.955 66.691 676.206 51.4751 675.463 46.2592C674.316 45.4592 673.169 44.6591 672.022 43.8745H671.988C671.988 40.5511 671.988 37.2431 671.988 33.9197H670.679C670.679 26.0421 670.679 14.1492 670.679 6.27164H668.739C668.739 -20.1922 668.739 47.3286 668.739 20.8494L669.824 20.8647C669.824 18.4338 669.824 16.0181 669.824 13.6025H665.431ZM1645.47 202.957H1645.48L1645.47 202.973V202.957Z" fill="black"/>
</svg>
