<svg width="2804" height="987" viewBox="0 0 2804 987" fill="none" xmlns="http://www.w3.org/2000/svg">
<path d="M941.882 5.72294e-05C941.882 4.0274 941.882 8.0549 941.882 12.0822L943.419 12.1078C943.419 56.229 943.419 100.376 943.419 144.497H940.673C940.673 157.631 940.673 170.79 940.673 183.924H938.82C938.82 186.053 938.82 188.182 938.82 190.312C937.126 188.926 935.434 187.541 933.741 186.13L930.828 230.559H906.279C906.279 237.87 906.279 245.181 906.279 252.492C913.953 252.492 921.633 252.492 929.312 252.492H929.388L927.529 280.811L906.279 280.837V302.744H926.094L920.488 388.19L908.735 567.369H891.115C891.115 574.808 891.115 582.247 891.115 589.686C879.748 589.481 868.387 589.301 857.028 589.121L824.38 670.592L815.153 693.617V693.627L768.264 694.54V694.551L767.878 694.369H767.872C763.24 679.408 758.607 664.448 753.974 649.488L754.05 649.498L798.675 671.774C798.708 671.792 798.74 671.802 798.773 671.802C798.799 671.802 798.832 671.792 798.864 671.774C798.891 671.764 798.923 671.744 798.95 671.713C799.03 671.623 799.095 671.472 799.117 671.302L813.912 568.343C813.938 568.164 813.927 567.984 813.879 567.83C813.831 567.676 813.749 567.574 813.659 567.523L799.359 560.366L800.798 550.387C800.842 550.079 800.815 549.771 800.735 549.515C800.654 549.258 800.519 549.079 800.363 548.976L759.725 528.685L719.076 508.369C719.022 508.344 718.974 508.344 718.92 508.344C718.867 508.344 718.813 508.344 718.765 508.369C718.56 508.472 718.388 508.78 718.329 509.19L716.894 519.194L694.769 508.138C694.738 508.113 694.705 508.113 694.678 508.113C694.645 508.113 694.614 508.113 694.581 508.113C694.462 508.19 694.361 508.369 694.329 508.6L693.039 517.578L664.074 503.111L599.369 470.789C599.343 470.764 599.31 470.764 599.279 470.764C599.247 470.764 599.214 470.764 599.188 470.789C599.069 470.841 598.966 471.02 598.929 471.251L598.574 473.739H598.569C595.366 472.841 590.954 471.892 587.923 471.892C586.81 471.892 585.887 472.021 585.273 472.328C584.946 472.508 584.704 472.713 584.58 472.995C584.844 475.791 592.174 481.922 596.903 485.385L596.161 490.515C592.958 489.618 588.541 488.669 585.51 488.669C584.398 488.669 583.474 488.797 582.866 489.105C582.533 489.259 582.296 489.49 582.172 489.772C582.431 492.568 589.767 498.699 594.495 502.162H594.491L593.754 507.292C590.545 506.394 586.133 505.445 583.102 505.445C581.991 505.445 581.066 505.573 580.453 505.855C580.125 506.035 579.883 506.266 579.759 506.548C580.024 509.344 587.354 515.475 592.083 518.938L591.34 524.068C588.138 523.17 583.72 522.221 580.695 522.221C579.583 522.221 578.659 522.35 578.045 522.632C577.712 522.811 577.476 523.016 577.352 523.299C577.61 526.12 584.946 532.251 589.676 535.689H589.67L588.933 540.845H588.929C585.725 539.921 581.313 538.972 578.282 538.972C577.17 538.972 576.246 539.1 575.638 539.408C575.305 539.588 575.068 539.793 574.94 540.075C575.203 542.871 582.538 549.027 587.263 552.465L586.902 554.953C586.849 555.312 586.967 555.697 587.154 555.774C618.378 571.37 649.606 586.992 680.829 602.589H680.823L679.534 611.567C679.481 611.926 679.599 612.285 679.787 612.388L687.16 616.056L693.19 658.005L681.565 663.807C681.006 664.089 680.668 665.169 680.823 666.223L681.781 672.875H681.775L669.662 678.929L633.167 697.164V697.175L619.259 697.437V697.444C619.06 696.051 618.861 694.659 618.663 693.276L616.411 694.399L614.164 695.52C614.262 696.192 614.358 696.864 614.449 697.536L614.375 697.547L426.654 701.192L421.764 689.841C421.731 689.749 421.694 689.669 421.652 689.59C421.474 689.259 421.238 689.079 420.99 689.079V689.089L410.688 689.079V683.756C410.688 683.246 410.581 682.756 410.387 682.394C410.194 682.035 409.93 681.832 409.662 681.832L409.656 681.843L409.264 681.832V668.737C409.264 668.476 409.231 668.227 409.167 668.006L407.733 662.976L407.813 662.986C408.205 663.338 408.597 663.697 408.985 664.058C409.054 664.117 409.13 664.148 409.2 664.148C409.302 664.148 409.403 664.089 409.49 663.979C410.661 662.345 411.838 660.721 413.015 659.097V659.108C413.488 659.608 413.961 660.121 414.434 660.631L414.429 660.641L414.128 661.614C414.069 661.803 414.1 662.045 414.203 662.155L418.793 667.093C418.824 667.134 418.862 667.155 418.895 667.155C418.915 667.155 418.937 667.144 418.954 667.134C419.007 667.103 419.056 667.044 419.083 666.954L419.389 665.962H419.394C419.808 666.413 420.222 666.854 420.635 667.303L420.629 667.313L420.459 668.116C420.324 668.748 420.415 669.468 420.689 669.92L425.757 678.215L430.825 686.504C430.862 686.573 430.905 686.624 430.948 686.673C434.339 690.462 437.73 694.248 441.127 698.047C441.132 698.057 441.138 698.057 441.143 698.068C441.271 698.206 441.423 698.278 441.572 698.278C441.685 698.278 441.804 698.237 441.911 698.147C442.17 697.947 442.357 697.526 442.416 697.013C443.991 683.667 445.555 670.392 447.118 657.163H447.113L450.311 646.853L451.112 644.257C451.149 644.137 451.16 643.996 451.138 643.868C451.123 643.727 451.073 643.616 451.01 643.547L439.241 630.88L430.378 621.34L430.443 621.14C430.507 620.93 430.47 620.65 430.357 620.529L425.328 615.132L423.397 613.055L424.279 610.207C424.3 610.13 424.305 610.053 424.296 609.976C424.285 609.899 424.257 609.822 424.22 609.797L422.399 607.822L420.576 605.872C420.55 605.846 420.522 605.821 420.496 605.821C420.442 605.821 420.389 605.872 420.356 605.975L418.486 612.003L416.896 610.31C416.788 610.182 416.676 610.13 416.561 610.13C416.332 610.13 416.105 610.361 415.982 610.771L415.955 610.849L415.036 609.848L412.918 607.565C412.887 607.539 412.854 607.514 412.817 607.514C412.746 607.514 412.682 607.591 412.645 607.719L411.79 610.464C411.731 610.643 411.768 610.874 411.865 610.977C412.876 612.08 413.891 613.157 414.901 614.26L414.762 614.696L412.312 612.054L406.809 606.129L406.411 603.204C406.389 603.076 406.33 602.922 406.254 602.845C406.249 602.845 406.249 602.845 406.243 602.845L402.278 599.1L403.089 596.458C403.133 596.33 403.105 596.176 403.041 596.099L398.005 590.686L392.965 585.248C392.944 585.222 392.922 585.222 392.894 585.222C392.889 585.222 392.889 585.222 392.885 585.222C392.835 585.222 392.793 585.274 392.771 585.351L391.744 588.66L388.806 585.504C388.784 585.479 388.762 585.453 388.735 585.453C388.687 585.453 388.639 585.505 388.612 585.582L388.231 586.838L385.398 583.786L385.468 583.555C385.485 583.504 385.479 583.452 385.446 583.401L383.393 581.195C383.382 581.195 383.371 581.169 383.362 581.169C383.34 581.169 383.318 581.195 383.308 581.246L382.818 582.811C382.802 582.862 382.813 582.939 382.846 582.965C383.528 583.709 384.216 584.453 384.898 585.171C384.91 585.197 384.919 585.197 384.93 585.197C384.952 585.197 384.974 585.171 384.984 585.145L385.054 584.914C386 585.941 386.94 586.941 387.887 587.967H387.881L387.794 588.249H387.214L379.072 580.195C379.03 580.169 378.976 580.117 378.922 580.117C378.917 580.117 378.911 580.117 378.906 580.117L365.477 581.631C365.433 581.631 365.396 581.657 365.359 581.682L345.152 559.93L345.265 559.57C345.307 559.442 345.318 559.288 345.298 559.109C345.276 558.955 345.222 558.826 345.146 558.75L342.685 556.107L340.224 553.465C340.176 553.414 340.117 553.363 340.063 553.363C339.956 553.363 339.848 553.491 339.789 553.67L339.676 554.055L324.844 538.074L280.578 490.413L280.728 489.951C280.82 489.643 280.847 489.284 280.798 488.951C280.75 488.617 280.632 488.309 280.471 488.155L276.059 483.41L271.651 478.664C271.538 478.536 271.416 478.485 271.297 478.485C271.055 478.485 270.819 478.716 270.684 479.126L267.771 488.54C267.577 489.182 267.692 489.977 268.03 490.336H268.036L276.849 499.827C276.956 499.955 277.08 500.007 277.204 500.007C277.263 500.007 277.326 500.007 277.385 499.955C277.568 499.878 277.725 499.648 277.816 499.365L277.966 498.878C297.662 520.067 317.363 541.281 337.064 562.495H337.058L336.945 562.854C336.86 563.136 336.908 563.495 337.064 563.675L341.986 568.959C342.036 569.01 342.089 569.036 342.149 569.036C342.175 569.036 342.202 569.036 342.228 569.036C342.309 568.985 342.38 568.882 342.422 568.754L342.535 568.395H342.541C349.538 575.911 356.54 583.452 363.536 590.994L364.719 600.998C364.741 601.152 364.799 601.28 364.875 601.383L385.237 622.954L385.559 625.38L385.548 625.391C382.796 626.763 380.05 628.135 377.304 629.508C376.934 629.687 376.72 630.39 376.816 631.08C377.6 636.521 378.186 640.61 378.578 643.337C378.626 643.668 378.739 643.947 378.9 644.116C379.003 644.237 379.127 644.299 379.244 644.299C379.303 644.299 379.363 644.278 379.422 644.247L385.775 641.082C385.775 641.082 386.35 640.79 387.51 640.21L388.042 644.227C388.07 644.468 388.155 644.668 388.268 644.789C388.273 644.799 388.284 644.809 388.295 644.819C389.3 645.751 390.309 646.692 391.315 647.633L385.494 668.006C385.431 668.227 385.398 668.476 385.398 668.737V681.832H385.006C384.436 681.832 383.974 682.694 383.974 683.756V689.079L373.672 689.089C373.393 689.079 373.123 689.318 372.946 689.731L367.513 702.336V702.346L0 709.49L154.159 987C999.997 987 1845.85 986.99 2691.68 986.99L2691.74 987C2729.16 876.297 2766.58 765.604 2804 654.908L2803.93 654.919L2374.16 663.266V663.276L2363.84 639.338C2363.66 638.927 2363.4 638.686 2363.11 638.686L2352.81 638.696V633.366C2352.81 632.304 2352.36 631.442 2351.78 631.442H2351.39V618.344C2351.39 618.085 2351.36 617.833 2351.3 617.613L2345.48 597.253C2346.48 596.304 2347.49 595.355 2348.49 594.431C2348.5 594.406 2348.52 594.406 2348.52 594.406C2348.63 594.277 2348.72 594.072 2348.75 593.841L2349.27 589.814C2350.44 590.404 2351.02 590.686 2351.02 590.686L2357.36 593.867C2357.43 593.893 2357.49 593.918 2357.54 593.918C2357.67 593.918 2357.78 593.841 2357.89 593.739C2358.05 593.559 2358.16 593.277 2358.2 592.943C2358.6 590.224 2359.19 586.12 2359.98 580.682C2360.07 580.015 2359.85 579.297 2359.48 579.117C2356.74 577.732 2353.99 576.347 2351.24 574.987H2351.23L2351.56 572.55L2371.92 551.003C2372 550.9 2372.04 550.746 2372.07 550.592L2373.25 540.614C2380.26 533.072 2387.26 525.53 2394.25 517.989L2394.37 518.374C2394.41 518.502 2394.48 518.604 2394.56 518.63C2394.59 518.656 2394.62 518.656 2394.65 518.656C2394.7 518.656 2394.76 518.63 2394.8 518.579L2399.72 513.269C2399.87 513.115 2399.93 512.756 2399.85 512.474L2399.74 512.114H2399.72C2419.42 490.9 2439.12 469.686 2458.82 448.472L2458.98 448.959C2459.07 449.267 2459.22 449.473 2459.4 449.575C2459.46 449.601 2459.53 449.627 2459.58 449.627C2459.71 449.627 2459.83 449.55 2459.94 449.447L2468.76 439.956C2469.1 439.571 2469.21 438.776 2469.02 438.16L2466.1 428.746C2465.98 428.31 2465.73 428.079 2465.5 428.079C2465.37 428.079 2465.25 428.13 2465.14 428.258L2460.74 433.004L2456.32 437.75C2456.16 437.929 2456.05 438.211 2455.99 438.545C2455.94 438.904 2455.96 439.263 2456.06 439.545L2456.21 440.033L2411.94 487.668L2397.11 503.649L2397 503.29C2396.94 503.085 2396.83 502.982 2396.72 502.982C2396.67 502.982 2396.61 503.008 2396.56 503.059L2394.11 505.727L2391.65 508.369C2391.56 508.446 2391.51 508.574 2391.5 508.728C2391.47 508.882 2391.48 509.036 2391.52 509.164L2391.63 509.549L2371.44 531.302C2371.4 531.276 2371.35 531.251 2371.31 531.251L2357.89 529.737C2357.87 529.737 2357.87 529.737 2357.86 529.737C2357.82 529.737 2357.76 529.763 2357.72 529.814L2349.58 537.869L2349 537.843L2348.9 537.561V537.587C2349.85 536.561 2350.79 535.535 2351.74 534.534V534.508L2351.81 534.739C2351.82 534.791 2351.83 534.816 2351.86 534.816C2351.87 534.816 2351.87 534.791 2351.89 534.791C2352.58 534.047 2353.26 533.303 2353.94 532.585C2353.98 532.533 2353.99 532.482 2353.97 532.431L2353.48 530.84C2353.47 530.815 2353.44 530.789 2353.43 530.789C2353.41 530.789 2353.4 530.789 2353.39 530.815L2351.34 533.021C2351.31 533.046 2351.3 533.123 2351.32 533.175L2351.39 533.405L2348.56 536.458L2348.17 535.201C2348.15 535.124 2348.1 535.073 2348.05 535.073C2348.02 535.073 2348.01 535.073 2347.98 535.098L2345.05 538.279L2344.02 534.97C2343.99 534.868 2343.94 534.816 2343.89 534.816V534.842H2343.88C2343.85 534.842 2343.84 534.842 2343.81 534.868L2333.74 545.718C2333.67 545.77 2333.66 545.949 2333.7 546.078L2334.51 548.694L2330.55 552.439C2330.54 552.439 2330.54 552.439 2330.52 552.439C2330.45 552.542 2330.4 552.67 2330.38 552.824L2329.99 555.748L2324.48 561.648L2322.02 564.316L2321.9 563.88H2321.88C2322.9 562.777 2323.92 561.674 2324.92 560.596C2325.02 560.494 2325.06 560.263 2325.01 560.083L2324.14 557.313C2324.11 557.21 2324.04 557.133 2323.97 557.133C2323.93 557.133 2323.91 557.159 2323.86 557.185L2321.76 559.468L2320.84 560.443L2320.81 560.366C2320.69 559.981 2320.45 559.75 2320.23 559.75C2320.11 559.75 2320 559.801 2319.89 559.93L2318.31 561.623L2316.43 555.594C2316.41 555.492 2316.35 555.441 2316.3 555.441C2316.27 555.441 2316.24 555.44 2316.21 555.492L2314.38 557.441L2312.57 559.391C2312.53 559.442 2312.5 559.493 2312.5 559.596C2312.49 559.647 2312.49 559.724 2312.51 559.801L2313.39 562.649L2311.47 564.726L2306.43 570.139C2306.32 570.267 2306.28 570.549 2306.35 570.755L2306.41 570.96L2297.55 580.502L2285.78 593.149C2285.71 593.226 2285.67 593.328 2285.65 593.482C2285.63 593.611 2285.63 593.739 2285.67 593.867L2286.48 596.458L2289.68 606.77C2291.23 619.999 2292.8 633.276 2294.37 646.623C2294.44 647.133 2294.62 647.554 2294.88 647.754C2294.99 647.844 2295.1 647.885 2295.22 647.885C2295.37 647.885 2295.52 647.815 2295.65 647.674C2295.65 647.664 2295.66 647.664 2295.66 647.654C2299.06 643.857 2302.44 640.069 2305.84 636.282C2305.88 636.231 2305.92 636.182 2305.97 636.11L2311.03 627.825L2316.1 619.527C2316.38 619.078 2316.46 618.354 2316.32 617.723L2316.16 616.923C2316.57 616.471 2316.99 616.03 2317.4 615.568L2317.7 616.561C2317.73 616.651 2317.78 616.723 2317.84 616.743C2317.85 616.751 2317.88 616.761 2317.89 616.761C2317.92 616.761 2317.96 616.743 2318 616.702L2322.58 611.772C2322.69 611.644 2322.72 611.413 2322.67 611.233L2322.36 610.258H2322.35C2322.83 609.745 2323.3 609.207 2323.77 608.719C2324.95 610.335 2326.12 611.951 2327.3 613.593C2327.39 613.696 2327.48 613.747 2327.59 613.747C2327.66 613.747 2327.73 613.722 2327.8 613.67C2328.2 613.286 2328.61 612.926 2329.01 612.542L2329.06 612.567L2327.62 617.613C2327.55 617.833 2327.52 618.085 2327.52 618.336V631.442H2327.14L2327.12 631.452L2327.11 631.462C2326.85 631.452 2326.59 631.652 2326.4 632.004C2326.2 632.363 2326.11 632.855 2326.11 633.366V638.686H2315.8V638.696L2315.79 638.706C2315.54 638.696 2315.31 638.876 2315.14 639.196C2315.1 639.279 2315.06 639.358 2315.03 639.448L2304.18 664.628V664.638L2078.62 669.017V669.027L2056.32 657.876L2044.2 651.812V651.822L2045.16 645.161C2045.32 644.106 2044.97 643.026 2044.42 642.744L2032.8 636.942L2038.82 594.996L2046.2 591.327C2046.39 591.225 2046.5 590.84 2046.44 590.506L2045.15 581.528C2076.38 565.906 2107.61 550.31 2138.83 534.714C2139.02 534.637 2139.13 534.252 2139.07 533.893L2138.73 531.405L2138.72 531.43C2143.45 527.942 2150.78 521.811 2151.04 519.015C2150.92 518.733 2150.67 518.527 2150.34 518.348C2149.74 518.04 2148.81 517.912 2147.7 517.912C2144.67 517.912 2140.26 518.887 2137.05 519.784L2136.31 514.654C2141.04 511.191 2148.37 505.034 2148.63 502.264V502.238C2148.51 501.956 2148.26 501.751 2147.93 501.572C2147.33 501.289 2146.39 501.135 2145.29 501.135C2142.27 501.135 2137.85 502.11 2134.64 503.008L2133.9 497.878C2138.63 494.415 2145.95 488.284 2146.23 485.488C2146.1 485.206 2145.86 484.975 2145.53 484.821C2144.92 484.513 2143.98 484.385 2142.88 484.385C2139.84 484.385 2135.44 485.334 2132.24 486.232H2132.22L2131.49 481.101H2131.48C2136.21 477.638 2143.54 471.507 2143.81 468.711C2143.68 468.429 2143.45 468.198 2143.12 468.045C2142.51 467.737 2141.58 467.608 2140.48 467.608C2137.44 467.608 2133.02 468.558 2129.81 469.455L2129.09 464.325H2129.07C2133.8 460.888 2141.14 454.731 2141.4 451.935C2141.27 451.653 2141.04 451.448 2140.71 451.268C2140.09 450.96 2139.17 450.832 2138.06 450.832C2135.03 450.832 2130.61 451.781 2127.41 452.679V452.705L2127.05 450.191C2127.01 449.96 2126.91 449.78 2126.79 449.729C2126.76 449.703 2126.73 449.703 2126.71 449.703C2126.66 449.703 2126.65 449.703 2126.61 449.729L2061.91 482.05L2032.95 496.518L2031.65 487.54C2031.63 487.309 2031.52 487.13 2031.39 487.078C2031.37 487.053 2031.34 487.052 2031.31 487.052C2031.28 487.052 2031.24 487.053 2031.21 487.078L2009.09 498.109L2007.65 488.13C2007.59 487.719 2007.41 487.412 2007.22 487.309C2007.17 487.283 2007.11 487.258 2007.06 487.258C2007 487.258 2006.96 487.283 2006.91 487.309L1966.27 507.625L1925.61 527.916C1925.46 527.993 1925.32 528.198 1925.24 528.455C1925.17 528.711 1925.14 529.019 1925.19 529.327L1926.62 539.331L1912.32 546.462C1912.23 546.514 1912.14 546.616 1912.1 546.77C1912.05 546.924 1912.05 547.104 1912.07 547.283L1926.86 650.24C1926.89 650.409 1926.95 650.56 1927.03 650.65C1927.06 650.681 1927.08 650.701 1927.11 650.722C1927.15 650.732 1927.18 650.74 1927.21 650.74C1927.24 650.74 1927.28 650.732 1927.3 650.722L1971.95 628.415H1972.02C1967.59 642.724 1963.16 657.042 1958.71 671.354L1958.66 671.361L1840.26 673.657C1840.26 661.734 1840.26 649.798 1840.26 637.886H1809.9C1809.9 629.728 1809.9 621.571 1809.9 613.414H1655.92H1655.86C1644.13 587.916 1632.4 562.418 1620.66 536.92C1584.61 537.202 1548.56 537.484 1512.49 537.741C1506.08 499.725 1499.67 461.708 1493.26 423.692L1493.17 423.718C1499.69 423.692 1506.23 423.692 1512.75 423.692C1512.75 411.918 1512.75 400.144 1512.75 388.37H1487.29C1484.05 369.208 1480.82 350.071 1477.59 330.909C1431.26 329.293 1384.94 327.677 1338.61 326.087H1338.54V158.631H1262.75V323.445C1250.52 323.009 1238.28 322.598 1226.04 322.162H1225.97C1225.97 267.652 1225.97 213.142 1225.97 158.631H1188.08H1150.18C1150.18 213.963 1150.18 269.268 1150.18 324.625H1139.57C1139.57 339.99 1139.57 355.382 1139.57 370.747H1129.23C1129.23 380.879 1129.23 390.986 1129.23 401.119C1132.65 401.119 1136.07 401.119 1139.5 401.119H1139.57C1139.57 406.736 1139.57 412.329 1139.57 417.946H1137.51H1111.37C1111.37 458.887 1111.37 499.827 1111.37 540.768H1111.3C1103.43 540.819 1095.55 540.896 1087.68 540.947L1063.07 592.508C1054.7 592.354 1046.32 592.225 1037.94 592.097H1037.87C1037.87 583.863 1037.87 575.603 1037.87 567.369H1000.27H1000.2C989.475 479.178 978.748 390.961 968.022 302.744H968.097H983.704V280.811L965.357 280.837C964.212 271.397 963.062 261.932 961.912 252.492H961.864C969.146 252.492 976.427 252.492 983.704 252.492C983.704 245.181 983.704 237.87 983.704 230.559H959.294L959.246 230.585C958.193 221.889 957.134 213.193 956.082 204.497C954.458 203.163 952.835 201.829 951.211 200.521H951.163C951.163 194.98 951.163 189.465 951.163 183.924H949.31C949.31 170.79 949.31 157.631 949.31 144.497H946.564C946.564 100.376 946.564 56.2291 946.564 12.0822L948.101 12.1078C948.101 8.0548 948.101 4.0274 948.101 5.72294e-05H941.882ZM2329.08 612.465H2329.09L2329.08 612.49V612.465Z" fill="black"/>
</svg>
