<svg width="1684" height="723" viewBox="0 0 1684 723" fill="none" xmlns="http://www.w3.org/2000/svg">
<path d="M1161.76 430.188C1164.2 430.265 1166.65 430.341 1169.1 430.424L1169.08 431.845L1164.09 431.62C1164.09 431.62 1164.08 431.62 1164.08 431.62C1164.03 431.62 1163.98 431.631 1163.93 431.653L1162.16 432.421L1161.73 430.188H1161.76ZM1005.7 434.847V454.439H1002.89L998.112 441.625L1005.7 434.847ZM1191.86 453.04L1189.05 457.106C1188.72 456.278 1188.39 455.449 1188.07 454.62H1188.06C1187.96 454.203 1187.83 453.797 1187.7 453.397V453.402L1191.86 453.04ZM1355.56 483.707C1355.57 483.745 1355.58 483.784 1355.6 483.817L1355.99 484.859H1355.98C1352.72 487.993 1349.46 491.121 1346.19 494.255L1345.59 492.63V492.636C1348.91 489.661 1352.24 486.681 1355.56 483.712V483.707ZM1364.45 496.488C1364.63 496.691 1364.8 496.894 1364.98 497.097L1364.55 497.487L1361.58 500.138L1361.35 499.254V499.26C1362.38 498.332 1363.41 497.41 1364.45 496.488ZM382.421 493.486H382.424C385.749 496.461 389.073 499.435 392.398 502.41V502.415L391.792 504.034C388.528 500.901 385.267 497.767 382.002 494.633L382.389 493.591C382.403 493.558 382.414 493.525 382.421 493.486ZM226.197 506.718L225.757 508.952L223.988 508.183C223.942 508.161 223.893 508.15 223.847 508.15C223.84 508.15 223.836 508.156 223.832 508.156L218.846 508.375L218.828 506.954H218.824C221.273 506.877 223.723 506.795 226.172 506.718H226.197ZM373.539 506.262H373.542C374.573 507.184 375.605 508.112 376.636 509.034H376.633L376.406 509.917L373.443 507.267L373.007 506.877C373.184 506.669 373.361 506.466 373.539 506.262ZM1547.18 518.117C1549.62 518.193 1552.07 518.27 1554.51 518.353L1554.49 519.774L1549.5 519.549H1549.49C1549.44 519.549 1549.39 519.56 1549.35 519.582L1547.58 520.35L1547.14 518.117H1547.18ZM196.059 529.57L200.217 529.927L200.213 529.932C200.085 530.327 199.968 530.733 199.859 531.151C199.529 531.979 199.199 532.808 198.87 533.637L196.059 529.57ZM230.521 526.574L232.435 528.566V532.534C232.435 532.786 232.502 533.027 232.619 533.209L236.489 539.064C236.55 539.158 236.617 539.229 236.695 539.273H236.67L220.721 540.694C220.848 539.662 220.912 538.603 220.915 537.511C220.915 537.495 220.915 537.478 220.915 537.462C220.898 536.337 220.823 535.261 220.696 534.224H220.692L228.908 529.982C229.018 529.921 229.114 529.811 229.177 529.663L230.521 526.574ZM1577.28 540.963L1574.46 545.035C1574.14 544.206 1573.81 543.378 1573.48 542.549H1573.47C1573.37 542.132 1573.25 541.726 1573.12 541.325V541.331L1577.28 540.963ZM734.25 0L731.361 185.577L730.107 266.152V266.162C727.693 266.152 725.279 266.135 722.869 266.124L698.576 360.391L688.276 400.35V400.361L671.303 399.801V389.769H665.344C665.344 379.572 665.344 369.37 665.344 359.184H658.844C658.844 315.928 658.844 272.671 658.844 229.409H672.933C672.933 221.951 672.933 214.493 672.933 207.018H658.844C658.844 203.363 658.844 199.697 658.844 196.031L655.814 196.042L652.783 196.031C652.783 199.697 652.783 203.363 652.783 207.018H638.698C638.698 214.493 638.698 221.951 638.698 229.409H652.783C652.783 272.671 652.783 315.928 652.783 359.184H646.283C646.283 369.37 646.283 379.572 646.283 389.769H640.329C640.329 392.776 640.329 395.784 640.329 398.791L639.878 398.775L607.749 476.896C603.06 473.258 598.367 469.619 593.678 465.981C568.428 465.926 543.182 465.865 517.935 465.805L517.91 465.81L488.85 420.732L490.339 398.983L495.173 387.941L495.787 339.405L486.993 329.302L488.039 191.981L471.883 156.748L468.938 447.113L460.361 465.673C446.474 465.64 432.587 465.607 418.697 465.574L402.042 513.743L395.535 532.566L380.259 532.83V532.835L376.172 524.949L376.168 524.955C376.147 524.905 376.126 524.861 376.101 524.823C375.995 524.658 375.849 524.565 375.697 524.565L369.413 524.57V521.87C369.413 521.607 369.346 521.36 369.229 521.179C369.112 520.998 368.952 520.893 368.786 520.893H368.545V514.253C368.545 514.127 368.523 514.001 368.484 513.885L367.595 511.306L367.623 511.311C367.871 511.498 368.123 511.696 368.371 511.888C368.413 511.915 368.46 511.937 368.502 511.937C368.566 511.937 368.626 511.904 368.679 511.844C369.395 511.021 370.115 510.197 370.831 509.374C371.121 509.632 371.408 509.89 371.695 510.148L371.692 510.153L371.508 510.647C371.472 510.746 371.493 510.867 371.557 510.927L374.354 513.424C374.375 513.441 374.396 513.452 374.421 513.452C374.432 513.452 374.442 513.452 374.453 513.446C374.488 513.43 374.517 513.397 374.535 513.353L374.719 512.854H374.722C374.974 513.079 375.226 513.304 375.481 513.529L375.477 513.534L375.371 513.94C375.289 514.264 375.346 514.632 375.513 514.857L378.607 519.06L381.698 523.259C381.722 523.292 381.747 523.319 381.776 523.347C383.842 525.262 385.912 527.188 387.985 529.114C387.989 529.114 387.989 529.12 387.992 529.12C388.074 529.191 388.166 529.23 388.255 529.23C388.326 529.23 388.396 529.208 388.464 529.164C388.62 529.06 388.733 528.846 388.769 528.588C389.733 521.826 390.686 515.098 391.64 508.397L393.589 503.167L394.078 501.856C394.099 501.795 394.106 501.724 394.096 501.658C394.085 501.587 394.057 501.532 394.018 501.499L386.833 495.078L381.428 490.243L381.467 490.139C381.506 490.034 381.485 489.892 381.414 489.831L378.345 487.087L377.168 486.039L377.703 484.596C377.717 484.557 377.721 484.519 377.714 484.481C377.707 484.442 377.693 484.409 377.668 484.387L376.555 483.394L375.445 482.401C375.428 482.384 375.414 482.379 375.396 482.379C375.36 482.379 375.328 482.406 375.311 482.456L374.169 485.518L373.198 484.645C373.134 484.59 373.064 484.563 372.996 484.563C372.854 484.563 372.716 484.678 372.642 484.876L372.624 484.92L372.061 484.415L370.774 483.268C370.753 483.246 370.731 483.24 370.71 483.24C370.668 483.24 370.625 483.273 370.604 483.334L370.083 484.733C370.051 484.826 370.069 484.942 370.129 484.996C370.746 485.551 371.366 486.1 371.983 486.654L371.898 486.873L370.402 485.54L367.045 482.538L366.801 481.056C366.787 480.979 366.751 480.913 366.709 480.869C366.705 480.869 366.702 480.864 366.698 480.864L364.281 478.965L364.777 477.632C364.802 477.571 364.788 477.489 364.745 477.45L358.599 471.951C358.585 471.946 358.571 471.935 358.553 471.935C358.525 471.935 358.493 471.962 358.479 472.006L357.855 473.68L356.058 472.078C356.047 472.067 356.033 472.056 356.015 472.056C355.987 472.056 355.959 472.083 355.941 472.127L355.707 472.758L353.981 471.216L354.023 471.101C354.034 471.073 354.027 471.04 354.009 471.019L352.755 469.899C352.747 469.893 352.74 469.893 352.737 469.893C352.723 469.893 352.708 469.904 352.701 469.921L352.407 470.717C352.397 470.744 352.4 470.783 352.421 470.799C352.836 471.172 353.254 471.545 353.672 471.919C353.68 471.924 353.687 471.924 353.694 471.924C353.704 471.924 353.719 471.913 353.726 471.897L353.768 471.781H353.772C354.346 472.297 354.92 472.813 355.498 473.323L355.494 473.329L355.441 473.472L355.087 473.477L350.121 469.394C350.093 469.372 350.061 469.361 350.029 469.361H350.015L341.824 470.118C341.799 470.124 341.774 470.135 341.749 470.151L329.419 459.126L329.489 458.939C329.514 458.868 329.521 458.786 329.507 458.709C329.497 458.632 329.461 458.566 329.419 458.528L326.413 455.839C326.381 455.811 326.349 455.8 326.317 455.8C326.25 455.8 326.183 455.855 326.147 455.954L326.076 456.135L317.028 448.046L290.02 423.893L290.108 423.657C290.165 423.503 290.183 423.317 290.151 423.152C290.122 422.982 290.051 422.839 289.952 422.741L287.259 420.342L284.568 417.939C284.501 417.867 284.427 417.84 284.356 417.84C284.203 417.84 284.062 417.966 283.98 418.175L282.204 422.938C282.084 423.262 282.155 423.668 282.364 423.866L287.741 428.673C287.808 428.728 287.882 428.755 287.957 428.755L287.964 428.761C287.999 428.755 288.035 428.75 288.07 428.739C288.18 428.684 288.272 428.574 288.332 428.432L288.421 428.179H288.425C300.444 438.93 312.462 449.676 324.485 460.421H324.481L324.414 460.602C324.361 460.75 324.393 460.932 324.485 461.014L327.49 463.703C327.519 463.73 327.551 463.741 327.586 463.741C327.604 463.741 327.618 463.736 327.636 463.73C327.685 463.709 327.728 463.659 327.753 463.588L327.824 463.407C332.098 467.226 336.369 471.046 340.64 474.866L341.363 479.926C341.374 480.013 341.409 480.085 341.455 480.123L341.459 480.129L353.882 491.061L354.077 492.29L354.073 492.295C352.393 492.987 350.717 493.684 349.04 494.381C348.817 494.469 348.682 494.831 348.742 495.177C349.221 497.937 349.579 500.006 349.816 501.389C349.845 501.559 349.915 501.696 350.015 501.784C350.079 501.845 350.149 501.872 350.224 501.872C350.259 501.872 350.298 501.867 350.334 501.85L354.208 500.242C354.208 500.242 354.562 500.099 355.267 499.803L355.59 501.839C355.611 501.96 355.661 502.064 355.728 502.125C355.735 502.13 355.739 502.135 355.746 502.141C356.359 502.613 356.976 503.09 357.593 503.568H357.589L354.041 513.891C353.999 514.001 353.981 514.127 353.981 514.258V520.893L353.74 520.899C353.392 520.893 353.109 521.333 353.109 521.87L353.112 524.565H346.825C346.651 524.565 346.488 524.686 346.382 524.894L341.916 533.499V533.505L332.761 533.659C324.169 521.744 315.581 509.835 306.99 497.921C289.935 503.425 272.879 508.93 255.82 514.434L246.97 534.405L245.145 538.521L237.209 539.223V539.229L239.364 537.786C239.569 537.648 239.708 537.346 239.729 537.006L240.193 529.405C240.211 529.114 240.144 528.829 240.005 528.632L233.665 519.329L235.795 514.423C235.887 514.204 235.908 513.935 235.851 513.688C235.791 513.446 235.66 513.26 235.5 513.188L231.637 511.509V511.514C232.006 509.616 232.374 507.717 232.747 505.818C232.856 505.253 232.651 504.66 232.286 504.484L227.767 502.371C227.699 502.339 227.632 502.322 227.565 502.322C227.451 502.322 227.341 502.366 227.239 502.454C227.079 502.585 226.959 502.816 226.905 503.085L226.434 505.505L222.284 505.637L218.792 505.747C218.761 505.571 218.697 505.417 218.612 505.286C218.488 505.099 218.325 505 218.151 505H218.14L209.687 505.247L201.234 505.5C200.869 505.505 200.574 505.977 200.582 506.542L200.599 508.019L198.14 508.063L194.099 508.134C193.975 508.139 193.876 508.299 193.876 508.491L193.886 509.484L188.52 509.725C188.24 509.736 188.017 510.082 188.01 510.516L188.003 511.169L186.606 511.174C186.596 511.169 186.589 511.174 186.581 511.174L180.216 511.8C180.021 511.822 179.868 512.069 179.868 512.371V513.529L167.853 513.534L167.85 513.529C167.842 513.435 167.814 513.347 167.772 513.276C167.715 513.194 167.64 513.15 167.566 513.15H162.848C162.703 513.15 162.583 513.315 162.561 513.534V513.529L151.262 513.534C151.237 513.446 151.205 513.369 151.159 513.304C151.06 513.15 150.932 513.068 150.794 513.068L138.074 513.073C137.786 513.068 137.556 513.43 137.556 513.869V521.503C137.556 521.942 137.786 522.298 138.074 522.298L150.794 522.304C150.932 522.298 151.064 522.216 151.159 522.068C151.202 522.002 151.237 521.92 151.262 521.837H162.561C162.583 522.051 162.703 522.216 162.848 522.216L167.566 522.222C167.64 522.222 167.715 522.172 167.772 522.09C167.814 522.024 167.842 521.931 167.85 521.837H179.868V522.995C179.868 523.297 180.021 523.55 180.216 523.566L186.581 524.197C186.589 524.197 186.596 524.197 186.606 524.197L187.808 524.203L187.797 524.977C187.79 525.361 187.957 525.695 188.198 525.789L190.615 526.672C190.636 526.678 190.654 526.694 190.672 526.711L192.961 529.175C193.039 529.263 193.131 529.312 193.231 529.323L194.641 529.444L198.388 534.866L198.384 534.871C198.001 535.832 197.619 536.792 197.239 537.753C197.154 537.967 197.151 538.23 197.229 538.444C197.303 538.658 197.448 538.795 197.608 538.795C198.111 538.806 198.618 538.817 199.125 538.834H199.121L199.157 539.673C199.16 539.728 199.164 539.783 199.171 539.838C199.21 540.239 199.256 540.634 199.313 541.023H199.309L197.002 542.807L0 560.363L196.332 723C652.425 723 1108.52 723 1564.61 722.995L1564.65 723L1684 563.815L1577.21 554.875V554.881L1574.03 552.417L1574.02 552.422C1574.08 552.032 1574.13 551.637 1574.16 551.237C1574.17 551.182 1574.17 551.127 1574.18 551.072L1574.22 550.227V550.232C1574.72 550.216 1575.22 550.205 1575.72 550.194C1575.89 550.194 1576.03 550.057 1576.11 549.843C1576.19 549.623 1576.18 549.365 1576.1 549.151C1575.72 548.191 1575.33 547.225 1574.95 546.264H1574.94L1578.69 540.842L1580.11 540.722C1580.21 540.711 1580.3 540.661 1580.37 540.573L1582.67 538.109C1582.68 538.087 1582.7 538.076 1582.72 538.065L1585.13 537.182C1585.38 537.094 1585.54 536.759 1585.54 536.375L1585.52 535.596H1586.73C1586.74 535.596 1586.75 535.596 1586.75 535.59L1593.13 534.965C1593.32 534.943 1593.46 534.696 1593.46 534.394V533.236H1605.49C1605.5 533.329 1605.52 533.417 1605.57 533.488C1605.62 533.571 1605.69 533.62 1605.77 533.62L1610.49 533.615C1610.63 533.615 1610.75 533.45 1610.78 533.236H1622.07C1622.1 533.318 1622.14 533.395 1622.17 533.461C1622.27 533.615 1622.41 533.697 1622.54 533.697L1635.27 533.702C1635.55 533.697 1635.78 533.34 1635.78 532.896V525.267C1635.78 524.823 1635.55 524.466 1635.27 524.466H1622.54C1622.41 524.466 1622.27 524.548 1622.17 524.697C1622.14 524.768 1622.1 524.845 1622.07 524.927L1610.78 524.933C1610.75 524.713 1610.63 524.543 1610.49 524.543L1605.77 524.548C1605.69 524.543 1605.62 524.592 1605.57 524.675C1605.52 524.746 1605.5 524.834 1605.49 524.927V524.933L1593.46 524.927V523.769C1593.46 523.467 1593.32 523.215 1593.13 523.198L1586.75 522.567C1586.75 522.567 1586.74 522.567 1586.73 522.567L1585.33 522.573L1585.33 521.914C1585.31 521.481 1585.1 521.135 1584.81 521.124L1579.45 520.882L1579.46 519.884C1579.46 519.692 1579.36 519.532 1579.24 519.532L1575.2 519.456L1572.74 519.412L1572.76 517.941C1572.76 517.376 1572.47 516.904 1572.1 516.893L1563.65 516.646L1555.2 516.399H1555.18C1555.02 516.399 1554.85 516.498 1554.72 516.684C1554.64 516.81 1554.57 516.97 1554.55 517.145L1551.06 517.035L1546.91 516.898L1546.43 514.483C1546.38 514.209 1546.25 513.984 1546.1 513.852C1546 513.765 1545.88 513.721 1545.77 513.721C1545.7 513.721 1545.64 513.737 1545.57 513.77L1541.05 515.883C1540.69 516.053 1540.48 516.651 1540.59 517.217C1540.96 519.115 1541.33 521.014 1541.7 522.908L1537.83 524.587C1537.68 524.658 1537.54 524.845 1537.49 525.086C1537.43 525.333 1537.45 525.602 1537.54 525.822L1539.67 530.722L1533.33 540.03C1533.2 540.228 1533.12 540.513 1533.14 540.804L1533.61 548.399C1533.62 548.745 1533.77 549.041 1533.97 549.184L1536.18 550.655C1536.25 550.71 1536.34 550.737 1536.42 550.737C1536.57 550.737 1536.74 550.644 1536.85 550.463L1540.72 544.607C1540.84 544.426 1540.9 544.185 1540.9 543.927V539.964L1542.81 537.967L1544.16 541.062C1544.22 541.21 1544.32 541.32 1544.43 541.38L1552.64 545.622C1552.52 546.66 1552.44 547.735 1552.42 548.855C1552.42 548.871 1552.42 548.893 1552.42 548.91C1552.42 550.117 1552.5 551.291 1552.66 552.428H1552.65L1552.2 552.784V552.79L1499.44 548.372L1498.71 537.676L1496.57 506.471C1485.91 505.587 1475.25 504.704 1464.59 503.82C1463.17 517.579 1461.73 531.337 1460.31 545.096V545.101L1418.62 541.605V541.611L1412.74 534.098C1412.64 533.982 1412.53 533.916 1412.4 533.916H1409.15V533.922C1408.86 533.916 1408.64 534.273 1408.64 534.712V535.909L1401.91 535.914V535.288C1401.91 535.085 1401.87 534.888 1401.79 534.734L1391.61 515.12C1391.5 514.912 1391.33 514.791 1391.16 514.791H1384.88V512.091C1384.88 511.553 1384.59 511.119 1384.25 511.119H1384.01V504.479C1384.01 504.353 1383.99 504.221 1383.95 504.111L1380.4 493.788C1381.01 493.311 1381.63 492.839 1382.25 492.361C1382.25 492.361 1382.26 492.356 1382.26 492.35C1382.33 492.285 1382.38 492.186 1382.39 492.065L1382.72 490.029C1383.43 490.32 1383.78 490.468 1383.78 490.468L1387.66 492.076C1387.69 492.092 1387.73 492.098 1387.77 492.098C1387.84 492.098 1387.91 492.07 1387.98 492.01C1388.08 491.922 1388.15 491.78 1388.17 491.615C1388.41 490.232 1388.77 488.163 1389.25 485.403C1389.31 485.051 1389.17 484.695 1388.95 484.601C1387.27 483.904 1385.59 483.207 1383.91 482.51V482.516L1384.11 481.281L1396.53 470.354C1396.58 470.311 1396.61 470.239 1396.62 470.151L1397.35 465.091C1401.62 461.272 1405.9 457.452 1410.16 453.633V453.627L1410.23 453.814C1410.26 453.885 1410.31 453.934 1410.35 453.956C1410.37 453.962 1410.39 453.967 1410.4 453.967C1410.44 453.967 1410.47 453.951 1410.5 453.923L1413.5 451.24C1413.6 451.157 1413.63 450.971 1413.57 450.828L1413.51 450.647H1413.5C1425.52 439.902 1437.54 429.151 1449.57 418.4L1449.66 418.652C1449.71 418.795 1449.81 418.921 1449.92 418.965C1449.96 418.976 1449.99 418.992 1450.03 418.992C1450.1 418.992 1450.18 418.948 1450.25 418.894L1455.63 414.075C1455.84 413.894 1455.9 413.482 1455.78 413.175L1454 408.411C1453.93 408.186 1453.78 408.077 1453.63 408.077C1453.56 408.077 1453.49 408.104 1453.42 408.159L1450.73 410.563L1448.04 412.977C1447.94 413.065 1447.87 413.202 1447.83 413.373C1447.8 413.543 1447.82 413.724 1447.88 413.877L1447.97 414.13L1420.97 438.272L1411.91 446.361L1411.84 446.174C1411.8 446.081 1411.74 446.026 1411.67 446.026C1411.64 446.026 1411.6 446.037 1411.57 446.065L1408.57 448.754C1408.53 448.792 1408.49 448.858 1408.48 448.935C1408.46 449.012 1408.47 449.094 1408.5 449.165L1408.57 449.352L1396.24 460.377C1396.21 460.361 1396.2 460.35 1396.17 460.35L1387.98 459.587C1387.97 459.587 1387.97 459.582 1387.97 459.582C1387.93 459.582 1387.9 459.598 1387.87 459.62L1382.9 463.703L1382.55 463.698L1382.49 463.549V463.555C1383.07 463.039 1383.64 462.523 1384.22 462.007L1384.27 462.122C1384.27 462.139 1384.28 462.15 1384.3 462.15C1384.3 462.15 1384.31 462.15 1384.32 462.139C1384.74 461.771 1385.15 461.398 1385.57 461.019C1385.59 461.003 1385.6 460.97 1385.58 460.943L1385.29 460.147C1385.28 460.125 1385.27 460.119 1385.25 460.119C1385.24 460.119 1385.24 460.119 1385.24 460.125L1383.98 461.244C1383.96 461.261 1383.96 461.299 1383.96 461.327L1384.01 461.442L1382.29 462.984L1382.05 462.353C1382.03 462.309 1382 462.287 1381.97 462.287C1381.96 462.287 1381.94 462.287 1381.93 462.304L1380.14 463.906L1379.51 462.227C1379.49 462.183 1379.46 462.161 1379.44 462.161C1379.42 462.161 1379.4 462.166 1379.39 462.183L1376.32 464.927L1373.25 467.671C1373.2 467.709 1373.19 467.797 1373.21 467.857L1373.7 469.186L1371.29 471.084C1371.29 471.09 1371.28 471.09 1371.28 471.09C1371.24 471.134 1371.2 471.2 1371.19 471.282L1370.95 472.758L1367.59 475.76L1366.09 477.099L1366.01 476.874V476.88C1366.63 476.325 1367.24 475.771 1367.86 475.217C1367.92 475.162 1367.94 475.047 1367.9 474.953L1367.39 473.559C1367.36 473.499 1367.32 473.461 1367.28 473.461C1367.26 473.461 1367.23 473.472 1367.21 473.488L1365.93 474.641L1365.36 475.146L1365.35 475.102C1365.27 474.899 1365.13 474.789 1364.99 474.789C1364.92 474.789 1364.86 474.816 1364.79 474.871L1363.82 475.738L1362.68 472.681C1362.66 472.632 1362.62 472.605 1362.59 472.605C1362.58 472.605 1362.56 472.61 1362.54 472.621L1361.44 473.62L1360.32 474.613C1360.29 474.635 1360.28 474.663 1360.27 474.706C1360.26 474.745 1360.27 474.783 1360.28 474.822L1360.82 476.26L1359.65 477.308L1356.57 480.057C1356.5 480.118 1356.48 480.255 1356.52 480.365L1356.56 480.463L1351.15 485.298L1343.98 491.719C1343.93 491.752 1343.91 491.813 1343.9 491.878C1343.88 491.944 1343.89 492.016 1343.91 492.076L1344.39 493.393L1346.35 498.618L1346.34 498.623C1347.3 505.319 1348.26 512.052 1349.22 518.814C1349.25 519.071 1349.37 519.285 1349.52 519.384C1349.59 519.428 1349.66 519.45 1349.73 519.45C1349.82 519.45 1349.91 519.417 1350 519.346C1350 519.34 1350 519.34 1350 519.335C1352.08 517.409 1354.15 515.488 1356.21 513.572C1356.24 513.551 1356.26 513.518 1356.29 513.49L1362.48 505.083C1362.64 504.852 1362.7 504.49 1362.62 504.166L1362.51 503.754V503.76C1362.76 503.529 1363.01 503.304 1363.27 503.079V503.074L1363.46 503.573C1363.47 503.623 1363.5 503.656 1363.53 503.672C1363.54 503.678 1363.56 503.678 1363.57 503.678C1363.59 503.678 1363.61 503.667 1363.63 503.65L1366.43 501.148C1366.49 501.093 1366.52 500.972 1366.48 500.873L1366.3 500.374H1366.29C1366.58 500.116 1366.87 499.858 1367.16 499.6C1367.88 500.423 1368.6 501.246 1369.31 502.064C1369.36 502.13 1369.43 502.157 1369.48 502.157C1369.53 502.157 1369.57 502.141 1369.62 502.108C1369.86 501.921 1370.11 501.729 1370.35 501.543H1370.39L1369.51 504.111C1369.46 504.221 1369.45 504.353 1369.45 504.479V511.119H1369.2C1369.04 511.119 1368.88 511.218 1368.76 511.405C1368.64 511.586 1368.57 511.833 1368.57 512.091V514.791H1362.29C1362.14 514.791 1362 514.884 1361.89 515.049C1361.86 515.087 1361.84 515.131 1361.82 515.175V515.18L1351.67 534.734C1351.59 534.888 1351.54 535.085 1351.54 535.283V535.909H1350.51L1344.82 535.431V534.712C1344.82 534.273 1344.59 533.916 1344.3 533.916H1341.05C1340.93 533.916 1340.81 533.982 1340.72 534.098L1339.99 535.025V535.031L1314.41 532.885V532.89V495.643L1294.44 495.649C1294.44 493.003 1294.44 490.358 1294.44 487.719H1278.83C1278.83 494.82 1278.83 501.921 1278.83 509.023L1275.21 509.028L1259.64 509.023C1259.64 515.449 1259.64 521.876 1259.64 528.302V528.308L1246.24 527.183L1212.2 464.713L1188.8 464.636V464.641L1188.61 464.488L1188.6 464.493C1188.67 464.104 1188.71 463.709 1188.76 463.308C1188.76 463.253 1188.77 463.198 1188.77 463.143L1188.8 462.304C1189.3 462.293 1189.81 462.276 1190.31 462.265C1190.47 462.265 1190.62 462.128 1190.69 461.914C1190.77 461.7 1190.76 461.436 1190.68 461.222C1190.3 460.262 1189.92 459.296 1189.54 458.336H1189.53L1193.27 452.914L1194.69 452.793C1194.79 452.782 1194.88 452.733 1194.95 452.65L1197.25 450.181C1197.27 450.159 1197.29 450.148 1197.3 450.142L1199.72 449.253C1199.96 449.165 1200.13 448.831 1200.13 448.446L1200.11 447.667H1201.31C1201.32 447.667 1201.33 447.667 1201.34 447.662L1207.7 447.036C1207.9 447.014 1208.05 446.767 1208.05 446.465V445.307H1220.07C1220.08 445.401 1220.11 445.488 1220.15 445.554C1220.2 445.642 1220.28 445.691 1220.35 445.691L1225.07 445.686C1225.21 445.686 1225.34 445.521 1225.35 445.307H1236.66C1236.68 445.39 1236.72 445.466 1236.76 445.532C1236.86 445.686 1236.99 445.768 1237.13 445.768L1249.85 445.774C1250.13 445.768 1250.37 445.412 1250.37 444.967V437.339C1250.37 436.894 1250.13 436.537 1249.85 436.537L1237.13 436.543C1236.99 436.537 1236.86 436.62 1236.76 436.773C1236.71 436.839 1236.68 436.916 1236.66 436.998L1225.36 437.004H1225.35C1225.34 436.784 1225.21 436.62 1225.07 436.62H1220.35C1220.28 436.62 1220.2 436.664 1220.15 436.746C1220.11 436.817 1220.08 436.905 1220.07 436.998V437.004L1208.05 436.998V435.84C1208.05 435.539 1207.9 435.292 1207.7 435.27L1201.34 434.644C1201.33 434.639 1201.32 434.639 1201.31 434.639L1199.92 434.644L1199.91 433.986C1199.9 433.552 1199.68 433.206 1199.4 433.195L1194.04 432.954V431.96C1194.05 431.768 1193.95 431.609 1193.82 431.604L1189.77 431.527L1187.32 431.483L1187.34 430.018C1187.34 429.447 1187.05 428.975 1186.69 428.969L1178.23 428.712L1169.78 428.476H1169.77C1169.59 428.476 1169.43 428.574 1169.31 428.755C1169.22 428.882 1169.16 429.046 1169.13 429.216L1165.64 429.107L1161.49 428.975L1161.01 426.549C1160.96 426.286 1160.84 426.061 1160.68 425.918C1160.57 425.836 1160.46 425.792 1160.36 425.792C1160.28 425.792 1160.22 425.808 1160.16 425.836L1155.64 427.954C1155.27 428.124 1155.07 428.728 1155.18 429.293C1155.55 431.187 1155.91 433.085 1156.28 434.979V434.984L1152.42 436.658C1152.26 436.73 1152.13 436.916 1152.07 437.158C1152.01 437.405 1152.04 437.679 1152.13 437.893L1154.26 442.799L1147.92 452.101C1147.77 452.299 1147.71 452.584 1147.73 452.875L1148.19 460.476C1148.22 460.816 1148.35 461.118 1148.55 461.255L1150.77 462.732C1150.84 462.781 1150.92 462.808 1151 462.808C1151.16 462.808 1151.32 462.715 1151.43 462.54L1155.3 456.678C1155.42 456.497 1155.48 456.256 1155.48 456.003V452.036L1157.4 450.043L1158.74 453.133C1158.81 453.281 1158.91 453.391 1159.02 453.451L1167.22 457.694V457.699C1167.1 458.731 1167.03 459.807 1167.01 460.932C1167.01 460.948 1167.01 460.965 1167.01 460.981C1167.01 462.188 1167.09 463.363 1167.25 464.499H1167.23L1167.14 464.57L1063.91 464.241L1063.89 464.246C1063.89 460.63 1063.89 457.019 1063.89 453.408H1060.82C1060.82 455.361 1060.82 457.32 1060.82 459.274V459.28L1027.13 459.274L1018.89 459.28V455.515C1018.89 454.922 1018.57 454.439 1018.19 454.439L1010.29 454.445V430.737L1014.64 426.862C1014.75 426.747 1014.78 426.522 1014.72 426.352L1013.08 421.956V421.972C1031.48 405.519 1049.88 389.066 1068.28 372.613C1068.4 372.514 1068.43 372.289 1068.37 372.125L1067.91 370.901C1070.59 367.839 1074.7 362.669 1074.6 361.121C1074.49 361.012 1074.32 360.957 1074.1 360.957C1072.55 360.957 1068.46 363.399 1065.79 365.21L1064.85 362.696C1067.54 359.634 1071.64 354.464 1071.54 352.917C1071.44 352.791 1071.26 352.752 1071.04 352.752C1069.5 352.752 1065.4 355.194 1062.73 356.994L1061.79 354.475V354.492C1064.48 351.413 1068.57 346.26 1068.48 344.701C1068.38 344.586 1068.21 344.542 1067.98 344.542C1066.44 344.542 1062.34 346.99 1059.67 348.79V348.801L1058.73 346.271H1058.72C1061.41 343.209 1065.51 338.039 1065.42 336.497C1065.32 336.381 1065.15 336.327 1064.92 336.327C1063.38 336.327 1059.28 338.769 1056.61 340.585L1055.67 338.066C1058.35 335.004 1062.45 329.834 1062.36 328.292C1062.25 328.177 1062.08 328.122 1061.86 328.122C1060.31 328.122 1056.21 330.564 1053.55 332.381L1053.09 331.157C1053.05 331.031 1052.97 330.976 1052.89 330.976C1052.84 330.976 1052.81 330.987 1052.77 331.031L1014.65 365.1L997.577 380.368L995.936 375.972C995.89 375.862 995.809 375.791 995.727 375.791C995.692 375.791 995.646 375.802 995.61 375.846L982.57 387.491L980.745 382.607C980.674 382.393 980.536 382.283 980.401 382.283C980.338 382.283 980.267 382.311 980.203 382.365L956.247 403.774L932.294 425.188C932.202 425.271 932.138 425.413 932.113 425.567C932.085 425.737 932.095 425.902 932.149 426.044L933.981 430.94L925.553 438.469C925.499 438.519 925.46 438.601 925.443 438.694C925.425 438.788 925.436 438.886 925.46 438.969L934.736 463.835V463.84L922.076 463.796L922.051 463.802C884.502 398.072 846.957 332.348 809.411 266.612C796.57 266.541 783.729 266.475 770.888 266.387L770.856 266.404C764.909 189.171 758.961 111.961 753.014 34.7445C746.758 23.1539 740.502 11.5742 734.25 0Z" fill="black"/>
</svg>
