<svg width="1136" height="362" viewBox="0 0 1136 362" fill="none" xmlns="http://www.w3.org/2000/svg">
<path d="M586.248 131.14V136.436L585.078 136.424L585.065 136.43C583.602 134.955 582.139 133.492 580.67 132.023H580.663V131.14L580.657 131.146C582.514 131.14 584.378 131.14 586.242 131.14H586.248ZM594.238 131.14V136.516L588.659 136.461H588.653C588.653 134.689 588.653 132.912 588.653 131.14L588.647 131.146C590.504 131.14 592.368 131.14 594.232 131.14H594.238ZM602.228 131.14C602.228 132.955 602.228 134.776 602.228 136.59V136.597L596.643 136.535V136.541V131.14L596.636 131.146C598.5 131.14 600.358 131.14 602.222 131.14H602.228ZM610.218 131.14V136.671L604.639 136.615H604.633C604.633 134.794 604.633 132.967 604.633 131.14L604.626 131.146C606.49 131.14 608.348 131.14 610.211 131.14H610.218ZM618.208 131.14V136.751L612.622 136.695V131.14L612.616 131.146C614.48 131.14 616.337 131.14 618.201 131.14H618.208ZM626.198 131.14V136.831L620.625 136.769L620.612 136.776C620.612 134.899 620.612 133.017 620.612 131.14L620.606 131.146C622.47 131.14 624.327 131.14 626.191 131.14H626.198ZM634.187 131.14C634.187 133.066 634.187 134.986 634.187 136.905L628.602 136.85V131.14L628.596 131.146C630.46 131.14 632.317 131.14 634.181 131.14H634.187ZM642.177 131.14V136.985L636.605 136.93H636.592C636.592 134.998 636.592 133.072 636.592 131.14L636.586 131.146C638.449 131.14 640.313 131.14 642.171 131.14H642.177ZM650.167 131.14C650.167 133.115 650.167 135.09 650.167 137.059V137.066L644.582 137.004V131.14L644.575 131.146C646.439 131.14 648.303 131.14 650.161 131.14H650.167ZM658.157 131.14V137.14L652.584 137.084L652.578 137.09C652.578 135.103 652.578 133.121 652.578 131.14L652.565 131.146C654.429 131.14 656.293 131.14 658.15 131.14H658.157ZM666.147 131.14V137.22L660.561 137.164V131.14V131.146C662.419 131.14 664.283 131.14 666.147 131.14ZM674.136 131.14V137.3L668.564 137.245H668.558C668.558 135.208 668.558 133.177 668.558 131.14L668.551 131.146C670.409 131.14 672.273 131.14 674.13 131.14H674.136ZM682.133 131.14C682.133 133.22 682.133 135.294 682.133 137.374L676.541 137.319V137.325V131.14V131.146C678.398 131.14 680.262 131.14 682.126 131.14H682.133ZM690.122 131.14V137.454L684.543 137.399H684.537C684.537 135.313 684.537 133.226 684.537 131.14L684.531 131.146C686.388 131.14 688.252 131.14 690.116 131.14H690.122ZM698.112 131.14C698.112 133.27 698.112 135.399 698.112 137.535L692.527 137.479V131.14L692.521 131.146C694.384 131.14 696.242 131.14 698.106 131.14H698.112ZM706.102 131.14V137.609L700.523 137.553L700.517 137.559C700.517 135.418 700.517 133.276 700.517 131.14H706.102ZM714.092 131.14C714.092 133.325 714.092 135.504 714.092 137.689L708.507 137.634V131.14H714.092ZM889.124 232.022V236.014L884.925 232.022L884.919 232.023C886.318 232.022 887.718 232.022 889.117 232.022H889.124ZM1128.83 232.022C1128.83 234.167 1128.83 236.313 1128.83 238.461V238.464C1126.97 238.461 1125.11 238.461 1123.25 238.461V232.022L1123.25 232.023C1125.11 232.022 1126.97 232.022 1128.83 232.022ZM1120.85 232.022V238.461L1120.84 238.464C1118.98 238.461 1117.12 238.461 1115.26 238.461C1115.26 236.313 1115.26 234.167 1115.26 232.022V232.023C1117.11 232.022 1118.98 232.022 1120.84 232.022H1120.85ZM1112.85 232.022C1112.85 234.167 1112.85 236.313 1112.85 238.461V238.464C1110.99 238.461 1109.13 238.461 1107.27 238.461V232.022L1107.27 232.023C1109.12 232.022 1110.99 232.022 1112.85 232.022ZM1104.87 232.022V238.461L1104.86 238.464C1103 238.461 1101.14 238.461 1099.28 238.461C1099.28 236.313 1099.28 234.167 1099.28 232.022V232.023C1101.13 232.022 1103 232.022 1104.86 232.022H1104.87ZM1096.87 232.022C1096.87 234.167 1096.87 236.313 1096.87 238.461L1096.87 238.464C1095.01 238.461 1093.15 238.461 1091.29 238.461V232.022L1091.28 232.023C1093.14 232.022 1095.01 232.022 1096.87 232.022H1096.87ZM1088.88 232.022V238.461V238.464C1087.02 238.461 1085.16 238.461 1083.3 238.461C1083.3 236.313 1083.3 234.167 1083.3 232.022L1083.29 232.023C1085.15 232.022 1087.02 232.022 1088.88 232.022ZM1080.89 232.022V238.461L1080.89 238.464C1079.03 238.461 1077.17 238.461 1075.31 238.461V232.022L1075.3 232.023C1077.16 232.022 1079.03 232.022 1080.89 232.022H1080.89ZM1072.9 232.022V238.461L1072.9 238.464C1071.04 238.461 1069.17 238.461 1067.32 238.461C1067.32 236.313 1067.32 234.167 1067.32 232.022L1067.31 232.023C1069.17 232.022 1071.04 232.022 1072.9 232.022H1072.9ZM1064.91 232.022C1064.91 234.167 1064.91 236.313 1064.91 238.461L1064.91 238.464C1063.05 238.461 1061.18 238.461 1059.33 238.461V232.022L1059.32 232.023C1061.18 232.022 1063.05 232.022 1064.91 232.022H1064.91ZM1056.92 232.022V238.461L1056.92 238.464C1055.06 238.461 1053.19 238.461 1051.34 238.461C1051.34 236.313 1051.34 234.167 1051.34 232.022L1051.33 232.023C1053.19 232.022 1055.05 232.022 1056.92 232.022H1056.92ZM1048.93 232.022C1048.93 234.167 1048.93 236.313 1048.93 238.461L1048.93 238.464C1047.06 238.461 1045.2 238.461 1043.35 238.461V232.022L1043.34 232.023C1045.2 232.022 1047.06 232.022 1048.93 232.022H1048.93ZM1040.94 232.022V238.461L1040.94 238.464C1039.08 238.461 1037.22 238.461 1035.36 238.461C1035.36 236.313 1035.36 234.167 1035.36 232.022L1035.35 232.023C1037.22 232.022 1039.07 232.022 1040.94 232.022H1040.94ZM1032.95 232.022V238.461L1032.95 238.464C1031.08 238.461 1029.23 238.461 1027.37 238.461V232.022L1027.36 232.023C1029.22 232.022 1031.08 232.022 1032.95 232.022H1032.95ZM1024.96 232.022V238.461V238.464C1023.09 238.461 1021.24 238.461 1019.38 238.461C1019.38 236.313 1019.38 234.167 1019.38 232.022L1019.37 232.023C1021.23 232.022 1023.09 232.022 1024.96 232.022ZM1016.97 232.022C1016.97 234.167 1016.97 236.313 1016.97 238.461L1016.97 238.464C1015.1 238.461 1013.25 238.461 1011.39 238.461V232.022L1011.38 232.023C1013.24 232.022 1015.1 232.022 1016.97 232.022H1016.97ZM1008.98 232.022V238.461V238.464C1007.11 238.461 1005.26 238.461 1003.4 238.461C1003.4 236.313 1003.4 234.167 1003.4 232.022L1003.39 232.023C1005.25 232.022 1007.11 232.022 1008.98 232.022ZM1000.99 232.022V238.461L1000.98 238.464C999.124 238.461 997.266 238.461 995.402 238.461V232.022L995.396 232.023C997.26 232.022 999.124 232.022 1000.98 232.022H1000.99ZM992.998 232.022V238.461L992.991 238.464C991.134 238.461 989.276 238.461 987.412 238.461C987.412 236.313 987.412 234.167 987.412 232.022L987.406 232.023C989.27 232.022 991.134 232.022 992.991 232.022H992.998ZM985.008 232.022V238.461L985.001 238.464C983.144 238.461 981.286 238.461 979.422 238.461V232.022L979.416 232.023C981.28 232.022 983.144 232.022 985.001 232.022H985.008ZM977.018 232.022V238.461L977.012 238.464C975.154 238.461 973.297 238.461 971.433 238.461C971.433 236.313 971.433 234.167 971.433 232.022L971.426 232.023C973.29 232.022 975.148 232.022 977.012 232.022H977.018ZM969.028 232.022V238.461L969.022 238.464C967.164 238.461 965.3 238.461 963.443 238.461V232.022L963.437 232.023C965.3 232.022 967.164 232.022 969.022 232.022H969.028ZM961.038 232.022V238.461L961.032 238.464C959.174 238.461 957.317 238.461 955.453 238.461C955.453 236.313 955.453 234.167 955.453 232.022L955.447 232.023C957.311 232.022 959.168 232.022 961.032 232.022H961.038ZM953.048 232.022C953.048 234.167 953.048 236.313 953.048 238.461L953.042 238.464C951.185 238.461 949.321 238.461 947.463 238.461V232.022L947.457 232.023C949.321 232.022 951.178 232.022 953.042 232.022H953.048ZM945.059 232.022V238.461L945.052 238.464C943.195 238.461 941.331 238.461 939.473 238.461C939.473 236.313 939.473 234.167 939.473 232.022L939.467 232.023C941.331 232.022 943.188 232.022 945.052 232.022H945.059ZM937.069 232.022C937.069 234.167 937.069 236.313 937.069 238.461L937.062 238.464C935.199 238.461 933.341 238.461 931.484 238.461V232.022L931.477 232.023C933.335 232.022 935.199 232.022 937.062 232.022H937.069ZM929.079 232.022V238.461L929.073 238.464C927.215 238.461 925.351 238.461 923.494 238.461C923.494 236.313 923.494 234.167 923.494 232.022L923.487 232.023C925.345 232.022 927.209 232.022 929.073 232.022H929.079ZM921.089 232.022C921.089 234.167 921.089 236.313 921.089 238.461L921.077 238.464C919.219 238.461 917.361 238.461 915.504 238.461V232.022L915.498 232.023C917.355 232.022 919.219 232.022 921.077 232.022H921.089ZM913.099 232.022V238.461L913.093 238.464C911.229 238.461 909.372 238.461 907.514 238.461C907.514 236.313 907.514 234.167 907.514 232.022L907.508 232.023C909.365 232.022 911.229 232.022 913.093 232.022H913.099ZM905.11 232.022C905.11 234.167 905.11 236.313 905.11 238.461L905.097 238.464C903.239 238.461 901.382 238.461 899.518 238.461V232.022L899.512 232.023C901.375 232.022 903.239 232.022 905.097 232.022H905.11ZM897.113 232.022V238.461L897.107 238.464C895.307 238.461 893.5 238.461 891.7 238.461V238.464L891.541 238.307L891.528 238.312C891.528 236.214 891.528 234.116 891.528 232.022L891.522 232.023C893.386 232.022 895.249 232.022 897.107 232.022H897.113ZM385.787 8.89561e-06L385.888 43.9417L385.988 86.97C383.421 86.9453 380.854 86.9267 378.285 86.902L378.273 86.9083L378.936 65.2182L379.915 33.2942L379.902 33.3004C377.922 35.1769 375.942 37.0656 373.961 38.9482C367.356 54.8608 360.752 70.7796 354.147 86.6922V86.6984C345.79 86.6181 337.433 86.5503 329.074 86.4762H329.061C329.061 85.717 329.061 84.9578 329.061 84.1924L318.483 78.6803L312.684 78.6865H312.664V78.6927C312.664 71.6252 312.664 64.5639 312.664 57.5088H312.651C313.953 57.4964 315.258 57.4965 316.563 57.4965C316.563 57.1385 316.563 56.7743 316.563 56.4101H312.684L312.664 56.4163C312.664 56.0336 312.664 55.657 312.664 55.2867H312.651C313.042 55.2805 313.434 55.2805 313.827 55.2805C313.827 54.651 313.827 54.0213 313.827 53.3856L312.684 53.3918L312.664 53.3856C312.664 52.8609 312.664 52.3301 312.664 51.8055L312.651 51.8116C315.032 51.7993 317.413 51.7993 319.793 51.7993C319.796 49.8117 319.796 47.8181 319.793 45.8305H312.684L312.664 45.8367C312.664 44.1886 312.664 42.5467 312.664 40.9049L310.668 40.9111L308.673 40.9049V40.9111C308.673 42.5468 308.673 44.1887 308.673 45.8305V45.8367L301.556 45.8305H301.544C301.544 47.8181 301.544 49.8117 301.544 51.7993C303.912 51.7993 306.283 51.7993 308.653 51.7993L308.673 51.8055C308.673 52.3301 308.673 52.8609 308.673 53.3856V53.3918L307.523 53.3856H307.51C307.51 54.0213 307.51 54.651 307.51 55.2805C307.617 55.2805 307.726 55.2805 307.833 55.2805C308.107 55.2805 308.38 55.2805 308.653 55.2805L308.673 55.2867C308.673 55.657 308.673 56.0336 308.673 56.4101L304.774 56.4163C304.774 56.7743 304.774 57.1385 304.774 57.4965C306.067 57.4965 307.361 57.4965 308.653 57.4965L308.673 57.5088C308.673 64.5639 308.673 71.619 308.673 78.6803V78.6865L302.853 78.6803L292.275 84.1924C292.275 84.8467 292.275 85.5071 292.275 86.1552V86.1614C289.084 86.1305 285.892 86.0997 282.701 86.075L248.462 133.442L225.785 164.817C204.752 164.564 183.721 164.317 162.688 164.064C141.833 188.862 120.977 213.663 100.124 238.461L100.109 238.464C66.9878 238.464 33.8689 238.461 0.750598 238.461L0.767775 238.464C-4.1597 274.126 14.631 315.303 57.1329 362L1023.63 357.529L1136 238.461L1135.99 238.464C1134.41 238.461 1132.83 238.461 1131.24 238.461C1131.24 236.313 1131.24 234.167 1131.24 232.022L1131.24 232.023C1131.43 232.022 1131.61 232.022 1131.8 232.022C1131.8 230.661 1131.8 229.301 1131.8 227.942H1004.09L880.631 227.939V227.944L867.909 215.847L821.655 171.891C803.367 171.675 785.078 171.459 766.783 171.243H766.776L723.29 137.775L716.509 137.708L716.496 137.714C716.496 135.523 716.496 133.331 716.496 131.14L717.05 131.146C717.05 129.782 717.05 128.424 717.05 127.06H589.34H575.727H575.714C562.801 114.129 549.887 101.204 536.98 88.2723C503.876 87.9884 470.775 87.6983 437.676 87.4143L437.664 87.4206C427.434 61.5333 417.203 35.6583 406.973 9.771C399.916 6.51812 392.859 3.25907 385.799 8.89561e-06H385.787Z" fill="black"/>
</svg>
