<svg width="788" height="391" viewBox="0 0 788 391" fill="none" xmlns="http://www.w3.org/2000/svg">
<path d="M406.462 160.929V164.601L405.651 164.592L405.642 164.596C404.627 163.574 403.612 162.559 402.593 161.541H402.588V160.929L402.584 160.933C403.872 160.929 405.165 160.929 406.458 160.929H406.462ZM412.005 160.929V164.656L408.135 164.618H408.13C408.13 163.39 408.13 162.157 408.13 160.929L408.126 160.933C409.414 160.929 410.707 160.929 412 160.929H412.005ZM417.547 160.929C417.547 162.187 417.547 163.449 417.547 164.708V164.712L413.673 164.669V164.673V160.929L413.668 160.933C414.961 160.929 416.25 160.929 417.543 160.929H417.547ZM423.089 160.929V164.763L419.219 164.725H419.215C419.215 163.462 419.215 162.195 419.215 160.929L419.21 160.933C420.503 160.929 421.792 160.929 423.085 160.929H423.089ZM428.631 160.929V164.819L424.757 164.78V160.929L424.753 160.933C426.046 160.929 427.334 160.929 428.627 160.929H428.631ZM434.174 160.929V164.875L430.308 164.832L430.299 164.836C430.299 163.535 430.299 162.23 430.299 160.929L430.295 160.933C431.588 160.929 432.876 160.929 434.169 160.929H434.174ZM439.716 160.929C439.716 162.264 439.716 163.595 439.716 164.926L435.842 164.887V160.929L435.837 160.933C437.13 160.929 438.419 160.929 439.711 160.929H439.716ZM445.258 160.929V164.982L441.393 164.943H441.384C441.384 163.603 441.384 162.268 441.384 160.929L441.379 160.933C442.672 160.929 443.965 160.929 445.254 160.929H445.258ZM450.8 160.929C450.8 162.298 450.8 163.668 450.8 165.033V165.037L446.926 164.994V160.929L446.922 160.933C448.215 160.929 449.507 160.929 450.796 160.929H450.8ZM456.343 160.929V165.089L452.477 165.05L452.473 165.054C452.473 163.676 452.473 162.302 452.473 160.929L452.464 160.933C453.757 160.929 455.05 160.929 456.338 160.929H456.343ZM461.885 160.929V165.144L458.01 165.106V160.929V160.933C459.299 160.929 460.592 160.929 461.885 160.929ZM467.427 160.929V165.2L463.562 165.161H463.557C463.557 163.749 463.557 162.341 463.557 160.929L463.553 160.933C464.841 160.929 466.134 160.929 467.423 160.929H467.427ZM472.974 160.929C472.974 162.371 472.974 163.809 472.974 165.251L469.095 165.213V165.217V160.929V160.933C470.383 160.929 471.676 160.929 472.969 160.929H472.974ZM478.516 160.929V165.307L474.646 165.268H474.642C474.642 163.822 474.642 162.375 474.642 160.929L474.637 160.933C475.926 160.929 477.219 160.929 478.511 160.929H478.516ZM484.058 160.929C484.058 162.405 484.058 163.882 484.058 165.362L480.184 165.324V160.929L480.179 160.933C481.472 160.929 482.761 160.929 484.054 160.929H484.058ZM489.6 160.929V165.414L485.73 165.375L485.726 165.38C485.726 163.895 485.726 162.409 485.726 160.929H489.6ZM495.143 160.929C495.143 162.444 495.143 163.954 495.143 165.469L491.268 165.431V160.929H495.143ZM616.555 260.877V263.645L613.643 260.877L613.639 260.878C614.61 260.877 615.58 260.877 616.551 260.877H616.555ZM782.831 260.877C782.831 262.364 782.831 263.853 782.831 265.342V265.344C781.543 265.342 780.25 265.342 778.961 265.342V260.877L778.957 260.878C780.25 260.877 781.538 260.877 782.831 260.877ZM777.293 260.877V265.342L777.289 265.344C775.996 265.342 774.708 265.342 773.415 265.342C773.415 263.853 773.415 262.364 773.415 260.877V260.878C774.703 260.877 775.996 260.877 777.289 260.877H777.293ZM771.747 260.877C771.747 262.364 771.747 263.853 771.747 265.342V265.344C770.454 265.342 769.165 265.342 767.877 265.342V260.877L767.873 260.878C769.161 260.877 770.454 260.877 771.747 260.877ZM766.209 260.877V265.342L766.205 265.344C764.912 265.342 763.623 265.342 762.33 265.342C762.33 263.853 762.33 262.364 762.33 260.877V260.878C763.619 260.877 764.912 260.877 766.205 260.877H766.209ZM760.662 260.877C760.662 262.364 760.662 263.853 760.662 265.342L760.658 265.344C759.369 265.342 758.081 265.342 756.792 265.342V260.877L756.784 260.878C758.077 260.877 759.369 260.877 760.658 260.877H760.662ZM755.12 260.877V265.342V265.344C753.827 265.342 752.539 265.342 751.246 265.342C751.246 263.853 751.246 262.364 751.246 260.877L751.241 260.878C752.534 260.877 753.827 260.877 755.12 260.877ZM749.578 260.877V265.342L749.573 265.344C748.285 265.342 746.997 265.342 745.704 265.342V260.877L745.699 260.878C746.992 260.877 748.285 260.877 749.573 260.877H749.578ZM744.036 260.877V265.342L744.031 265.344C742.743 265.342 741.45 265.342 740.161 265.342C740.161 263.853 740.161 262.364 740.161 260.877L740.157 260.878C741.45 260.877 742.743 260.877 744.031 260.877H744.036ZM738.493 260.877C738.493 262.364 738.493 263.853 738.493 265.342L738.489 265.344C737.201 265.342 735.908 265.342 734.619 265.342V260.877L734.615 260.878C735.908 260.877 737.201 260.877 738.489 260.877H738.493ZM732.951 260.877V265.342L732.947 265.344C731.658 265.342 730.365 265.342 729.077 265.342C729.077 263.853 729.077 262.364 729.077 260.877L729.073 260.878C730.365 260.877 731.654 260.877 732.947 260.877H732.951ZM727.409 260.877C727.409 262.364 727.409 263.853 727.409 265.342L727.404 265.344C726.112 265.342 724.823 265.342 723.535 265.342V260.877L723.53 260.878C724.823 260.877 726.112 260.877 727.404 260.877H727.409ZM721.867 260.877V265.342L721.862 265.344C720.574 265.342 719.281 265.342 717.992 265.342C717.992 263.853 717.992 262.364 717.992 260.877L717.988 260.878C719.281 260.877 720.569 260.877 721.862 260.877H721.867ZM716.324 260.877V265.342L716.32 265.344C715.027 265.342 713.739 265.342 712.45 265.342V260.877L712.446 260.878C713.734 260.877 715.027 260.877 716.32 260.877H716.324ZM710.778 260.877V265.342V265.344C709.485 265.342 708.196 265.342 706.908 265.342C706.908 263.853 706.908 262.364 706.908 260.877L706.904 260.878C708.192 260.877 709.485 260.877 710.778 260.877ZM705.24 260.877C705.24 262.364 705.24 263.853 705.24 265.342L705.236 265.344C703.943 265.342 702.654 265.342 701.366 265.342V260.877L701.361 260.878C702.65 260.877 703.943 260.877 705.236 260.877H705.24ZM699.693 260.877V265.342V265.344C698.4 265.342 697.112 265.342 695.823 265.342C695.823 263.853 695.823 262.364 695.823 260.877L695.819 260.878C697.108 260.877 698.4 260.877 699.693 260.877ZM694.156 260.877V265.342L694.147 265.344C692.858 265.342 691.57 265.342 690.277 265.342V260.877L690.272 260.878C691.565 260.877 692.858 260.877 694.147 260.877H694.156ZM688.609 260.877V265.342L688.604 265.344C687.316 265.342 686.028 265.342 684.735 265.342C684.735 263.853 684.735 262.364 684.735 260.877L684.73 260.878C686.023 260.877 687.316 260.877 688.604 260.877H688.609ZM683.067 260.877V265.342L683.062 265.344C681.774 265.342 680.485 265.342 679.192 265.342V260.877L679.188 260.878C680.481 260.877 681.774 260.877 683.062 260.877H683.067ZM677.524 260.877V265.342L677.52 265.344C676.231 265.342 674.943 265.342 673.65 265.342C673.65 263.853 673.65 262.364 673.65 260.877L673.646 260.878C674.939 260.877 676.227 260.877 677.52 260.877H677.524ZM671.982 260.877V265.342L671.978 265.344C670.689 265.342 669.396 265.342 668.108 265.342V260.877L668.104 260.878C669.396 260.877 670.689 260.877 671.978 260.877H671.982ZM666.44 260.877V265.342L666.436 265.344C665.147 265.342 663.859 265.342 662.566 265.342C662.566 263.853 662.566 262.364 662.566 260.877L662.561 260.878C663.854 260.877 665.143 260.877 666.436 260.877H666.44ZM660.898 260.877C660.898 262.364 660.898 263.853 660.898 265.342L660.893 265.344C659.605 265.342 658.312 265.342 657.023 265.342V260.877L657.019 260.878C658.312 260.877 659.6 260.877 660.893 260.877H660.898ZM655.356 260.877V265.342L655.351 265.344C654.063 265.342 652.77 265.342 651.481 265.342C651.481 263.853 651.481 262.364 651.481 260.877L651.477 260.878C652.77 260.877 654.058 260.877 655.351 260.877H655.356ZM649.813 260.877C649.813 262.364 649.813 263.853 649.813 265.342L649.809 265.344C648.516 265.342 647.228 265.342 645.939 265.342V260.877L645.935 260.878C647.223 260.877 648.516 260.877 649.809 260.877H649.813ZM644.271 260.877V265.342L644.267 265.344C642.978 265.342 641.685 265.342 640.397 265.342C640.397 263.853 640.397 262.364 640.397 260.877L640.392 260.878C641.681 260.877 642.974 260.877 644.267 260.877H644.271ZM638.729 260.877C638.729 262.364 638.729 263.853 638.729 265.342L638.72 265.344C637.431 265.342 636.143 265.342 634.855 265.342V260.877L634.85 260.878C636.139 260.877 637.431 260.877 638.72 260.877H638.729ZM633.187 260.877V265.342L633.182 265.344C631.889 265.342 630.601 265.342 629.312 265.342C629.312 263.853 629.312 262.364 629.312 260.877L629.308 260.878C630.596 260.877 631.889 260.877 633.182 260.877H633.187ZM627.644 260.877C627.644 262.364 627.644 263.853 627.644 265.342L627.635 265.344C626.347 265.342 625.059 265.342 623.766 265.342V260.877L623.761 260.878C625.054 260.877 626.347 260.877 627.635 260.877H627.644ZM622.098 260.877V265.342L622.093 265.344C620.844 265.342 619.591 265.342 618.343 265.342V265.344L618.232 265.235L618.223 265.238C618.223 263.784 618.223 262.329 618.223 260.877L618.219 260.878C619.512 260.877 620.805 260.877 622.093 260.877H622.098ZM267.41 0L267.48 30.4679L267.549 130.302C265.769 130.285 263.988 130.272 262.206 130.255L262.198 130.26L262.658 45.2203L263.337 23.0852L263.328 23.0895C261.954 24.3906 260.581 25.7002 259.207 27.0056C254.625 38.0389 250.044 49.0765 245.462 130.11V130.114C239.666 130.058 233.869 130.011 228.071 129.96H228.062C228.062 129.434 228.062 128.907 228.062 128.376L220.724 124.555L216.701 124.559H216.687V124.563C216.687 119.663 216.687 54.7667 216.687 49.8749H216.678C217.582 49.8663 218.487 49.8663 219.392 49.8663C219.392 49.6181 219.392 49.3656 219.392 49.1131H216.701L216.687 49.1174C216.687 48.852 216.687 48.5909 216.687 48.3341H216.678C216.949 48.3299 217.222 48.3299 217.494 48.3299C217.494 47.8934 217.494 47.4568 217.494 47.016L216.701 47.0203L216.687 47.016C216.687 46.6522 216.687 46.2841 216.687 45.9203L216.678 45.9246C218.33 45.9161 219.981 45.916 221.633 45.916C221.634 44.538 221.634 43.1556 221.633 41.7775H216.701L216.687 41.7818C216.687 40.6391 216.687 39.5006 216.687 38.3622L215.303 38.3665L213.919 38.3622V38.3665C213.919 39.5007 213.919 40.6391 213.919 41.7775V41.7818L208.982 41.7775H208.974C208.974 43.1556 208.974 44.538 208.974 45.916C210.616 45.916 212.261 45.916 213.905 45.916L213.919 45.9203C213.919 46.2841 213.919 46.6522 213.919 47.016V47.0203L213.121 47.016H213.112C213.112 47.4568 213.112 47.8934 213.112 48.3299C213.186 48.3299 213.262 48.3299 213.336 48.3299C213.526 48.3299 213.715 48.3299 213.905 48.3299L213.919 48.3341C213.919 48.5909 213.919 48.852 213.919 49.1131L211.214 49.1174C211.214 49.3656 211.214 49.6181 211.214 49.8663C212.111 49.8663 213.009 49.8663 213.905 49.8663L213.919 49.8749C213.919 54.7667 213.919 119.658 213.919 124.555V124.559L209.882 124.555L202.544 128.376C202.544 128.83 202.544 129.288 202.544 129.737V129.742C200.331 129.72 198.116 129.699 195.903 129.682L172.153 162.525L156.423 184.279C141.833 184.104 127.244 183.933 112.655 183.757C98.1881 200.952 83.7214 248.147 69.2564 265.342L69.2458 265.344C46.2712 265.344 23.2978 265.342 0.324921 265.342L0.336836 265.344C-3.08117 290.071 19.9537 358.622 49.4356 391L719.856 387.9L787.804 265.342L787.8 265.344C786.701 265.342 785.602 265.342 784.504 265.342C784.504 263.853 784.504 262.364 784.504 260.877L784.499 260.878C784.632 260.877 784.76 260.877 784.888 260.877C784.888 259.934 784.888 258.991 784.888 258.048H696.3L610.665 258.046V258.05L601.839 249.662L569.755 189.184C557.069 189.034 544.383 188.884 531.692 188.734H531.688L501.523 165.529L496.819 165.482L496.811 165.487C496.811 163.967 496.811 162.448 496.811 160.929L497.194 160.933C497.194 159.987 497.194 159.046 497.194 158.1H408.607H399.164H399.155C390.198 149.134 381.24 140.172 372.287 131.205C349.324 131.009 326.363 130.807 303.403 130.611L303.395 130.615C296.299 42.6653 289.202 24.7244 282.106 6.7749C277.211 4.51945 272.315 2.25973 267.419 0H267.41Z" fill="black"/>
</svg>
