<svg width="1632" height="660" viewBox="0 0 1632 660" preserveAspectRatio="none" fill="none" xmlns="http://www.w3.org/2000/svg">
<path d="M81.6516 524.967C100.779 535.648 120.659 555.03 152.708 551.467C171.1 549.722 189.072 547.461 207.656 545.924C195.224 532.818 161.808 629.218 153.173 652.87C152.287 657.767 146.882 659.182 142.321 659.111C121.717 659.64 101.113 659.131 80.5084 659.467C80.0222 622.499 81.6731 561.926 81.6516 524.967ZM23.5492 461.379C21.9665 452.887 29.9254 444.966 38.9192 445.771C46.92 445.007 54.3506 451.808 53.528 459.424C52.6827 477.883 49.3264 496.464 42.3811 513.792C49.8547 513.609 -81.4819 513.568 84.0749 513.049C93.3481 520.467 60.6937 526.631 107.91 533.167C-62.7815 532.587 50.4876 532.292 42.7606 532.19C47.6165 548.165 50.6138 564.567 53.4007 580.959C54.5619 586.202 54.1824 592.993 48.6084 595.925C40.2907 600.629 24.5206 598.277 24.2888 587.18C24.5842 568.517 28.4893 549.977 33.5565 531.997C29.1653 531.589 24.0139 532.913 20.1714 530.612C17.3219 525.888 18.441 519.891 19.3908 514.749C24.499 514.23 29.6505 514.006 34.7813 513.986C28.3632 497.125 25.6182 479.125 23.5492 461.379ZM487.175 430.478C777.538 430.122 1067.91 430.499 1358.3 430.152C1385.03 430.417 1411.83 429.796 1438.58 430.957C1476.83 433.746 1515.17 439.092 1551.69 450.495C1574.72 458.446 1597.72 469.208 1613.78 487.26C1627.1 501.829 1634.79 522.202 1629.85 541.343C1625.71 560.983 1610.37 576.55 1593.41 587.577C1568.44 603.409 1539.2 611.778 1510.08 617.856C1481.73 623.558 1452.87 627.365 1423.88 628.109C1158.52 628.19 893.142 628.404 627.776 628.221C579.095 627.824 530.263 629.738 481.728 625.156C435.431 620.096 389.071 615.229 343.196 607.41C276.949 595.467 211.397 580.002 147.051 560.901C126.383 554.223 105.187 548.358 85.9336 538.431C74.6596 532.913 72.4861 516.104 82.3661 508.488C90.0294 503.122 99.0859 499.956 107.91 496.708C195.796 466.459 288.138 449.578 380.669 437.992C415.945 433.186 451.498 430.02 487.175 430.478ZM80.3812 388.287C101.049 387.991 121.717 388.215 142.385 388.49C146.397 388.449 151.696 389.213 152.708 393.673C161.427 416.876 181.143 459.417 190.348 482.467C157.14 491.437 111.583 498.786 80.3812 513.061C79.8109 477.294 80.613 424.033 80.3812 388.287ZM766.626 303.679C840.94 293.793 915.883 287.175 990.996 287.094C1002.88 287.328 1015.25 286.554 1026.61 290.566C1033.77 292.999 1039.66 298.752 1041.54 305.797C1044.85 318.055 1044.47 330.833 1046.26 343.315C1082.49 342.735 1010.04 342.939 1046.26 343.315C1046.33 353.181 1046.24 351.591 1046.26 361.467C1047.35 368.967 1048.86 373.025 1048.86 373.025C1049.52 381.811 1051.02 390.547 1051.28 399.374C1093.79 400.616 1136.37 398.58 1178.91 400.168C1205.72 402.602 1232.84 438.114 1258.35 445.771C1143.65 446.585 1023.07 473.804 908.348 473.967C792.283 473.947 678.918 463.313 562.848 463.395C520.647 463.14 431.848 463.395 431.848 463.395C464.929 454.598 504.318 399.038 539.131 399.934C607.762 399.975 676.417 399.557 745.072 399.995C750.666 375.509 754.234 350.646 759.786 326.15C761.602 318.554 762.636 310.623 766.626 303.679ZM947.483 274.407C952.571 274.776 957.682 274.896 962.792 274.896C962.878 283.52 962.921 292.133 962.965 300.782C957.768 300.83 952.593 300.973 947.418 301.223C947.235 292.288 947.256 283.342 947.483 274.407ZM884.153 249.235C889.683 249.164 895.236 249.092 900.788 249.212C901.144 267.45 900.81 285.712 900.681 303.986C895.128 304.237 889.597 304.82 884.131 305.797C884.282 286.951 884.131 268.105 884.153 249.235ZM855.086 189.267C859.787 189.302 864.52 189.35 869.253 189.469C869.274 228.495 869.379 -333.481 869.271 312.741C864.419 315.108 859.589 325.957 854.813 343.315C855.115 -314.15 854.601 228.96 855.086 189.267ZM915.354 133.467C920.27 133.539 925.198 133.765 930.114 134.087C930.006 190.053 930.286 246.043 930.028 302.021C925.133 302.116 920.227 302.533 915.376 303.141C915.182 246.579 915.246 190.005 915.354 133.467Z" fill="black"/>
</svg>
