<svg width="1613" height="526" viewBox="0 0 1613 526" fill="none" xmlns="http://www.w3.org/2000/svg">
<path d="M61.8799 415.115C81.0072 425.795 102.54 431.578 123.546 438.043C135.601 441.21 147.381 445.313 159.562 448.102C151.413 471.886 143.454 495.751 134.819 519.402C133.933 524.3 128.528 525.715 123.968 525.644C103.363 526.173 82.7592 525.664 62.1549 526C61.6686 489.031 61.9015 452.073 61.8799 415.115ZM5.19565 327.911C3.61294 319.42 11.5718 311.499 20.5656 312.303C28.5665 311.54 35.997 318.341 35.1744 325.956C34.3291 344.415 30.9729 362.996 24.0275 380.325C31.5012 380.142 38.9953 380.101 46.469 379.582C44.9068 386.261 45.4135 393.164 47.545 399.7C39.8395 399.12 32.134 398.825 24.407 398.723C29.263 414.697 32.2602 431.1 35.0472 447.492C36.2083 452.735 35.8288 459.526 30.2548 462.458C21.937 467.162 6.16704 464.81 5.93524 453.712C6.23065 435.05 10.1357 416.51 15.203 398.529C10.8117 398.122 5.66032 399.446 1.81783 397.145C-1.03169 392.42 0.0874183 386.424 1.03726 381.282C6.14549 380.763 11.2968 380.539 16.4277 380.518C10.0095 363.658 7.2646 345.657 5.19565 327.911ZM109.148 385.711C98.6984 386.678 88.1639 387.136 77.8612 389.295C115.63 392.624 153.46 395.353 191.356 397.094C223.656 398.886 256.548 402.734 288.489 395.709C293.809 394.314 300.459 393.184 302.528 387.564C289.312 377.372 270.945 377.169 254.69 376.792C206.091 377.973 157.578 381.781 109.148 385.711ZM1463.16 337.777C1463.48 350.219 1463.27 362.66 1463.19 375.102C1504.27 374.817 1545.35 375.377 1586.44 374.858C1577.67 359.524 1564.29 346.747 1548.56 337.797C1520.1 337.482 1491.61 337.36 1463.16 337.777ZM1423.04 337.604C1422.69 350.056 1423.01 362.518 1422.8 374.98C1429.07 374.725 1435.36 374.756 1441.66 375.021C1441.59 362.538 1441.72 350.076 1441.59 337.614C1435.38 337.675 1429.19 337.655 1423.04 337.604ZM468.822 297.011C759.187 296.655 1049.56 297.031 1339.94 296.685C1366.68 296.95 1393.47 296.329 1420.22 297.489C1458.47 300.279 1496.81 305.624 1533.34 317.027C1556.37 324.979 1579.37 335.741 1595.43 353.792C1608.75 368.362 1616.43 388.735 1611.49 407.876C1607.35 427.516 1592.01 443.083 1575.05 454.109C1550.08 469.941 1520.84 478.311 1491.72 484.389C1463.38 490.09 1434.52 493.898 1405.53 494.641C1140.16 494.723 874.791 494.937 609.423 494.753C560.741 494.356 511.909 496.27 463.375 491.689C417.077 486.629 370.717 481.762 324.843 473.943C258.595 462 193.044 446.534 128.698 427.434C108.03 420.755 86.8335 414.891 67.58 404.964C56.3059 399.446 54.1324 382.636 64.0125 375.021C71.6759 369.655 80.7323 366.489 89.5568 363.241C177.444 332.992 269.784 316.111 362.315 304.525C397.592 299.719 433.144 296.553 468.822 297.011ZM62.0276 254.819C82.6956 254.524 103.364 254.748 124.031 255.023C128.043 254.982 133.342 255.746 134.355 260.205C143.074 283.409 151.054 306.877 160.259 329.927C127.05 338.897 93.4834 347.846 62.281 362.121C61.7107 326.354 62.2594 290.566 62.0276 254.819ZM748.272 170.212C822.587 160.326 897.529 153.708 972.643 153.627C984.524 153.861 996.901 153.087 1008.25 157.099C1015.41 159.532 1021.31 165.284 1023.19 172.33C1026.5 184.588 1026.12 197.366 1027.91 209.848C991.683 209.471 955.436 209.349 919.21 209.93C919.275 219.795 919.189 229.641 919.21 239.517C956.298 239.771 993.418 239.456 1030.51 239.557C1031.16 248.344 1032.66 257.08 1032.92 265.907C1075.43 267.149 1118.02 265.113 1160.55 266.701C1187.37 269.134 1212.99 277.554 1238.5 285.211C1123.8 286.025 1009.06 285.302 894.337 285.465C778.271 285.445 662.181 285.404 546.11 285.486C503.909 285.231 461.665 286.188 419.485 285.129C452.566 276.333 485.964 265.571 520.777 266.467C589.409 266.508 658.063 266.09 726.718 266.528C732.312 242.042 735.88 217.179 741.432 192.682C743.248 185.087 744.282 177.156 748.272 170.212ZM929.129 120.456C934.218 120.771 939.328 120.873 944.439 120.873C944.525 128.245 944.568 135.606 944.611 142.997C939.414 143.038 934.239 143.16 929.064 143.374C928.881 135.738 928.903 128.092 929.129 120.456ZM865.799 98.9425C871.33 98.8814 876.882 98.8203 882.435 98.9221C882.791 114.51 882.456 130.118 882.327 145.736C876.775 145.95 871.244 146.449 865.778 147.284C865.928 131.177 865.777 115.07 865.799 98.9425ZM836.732 47.6896C841.433 47.7201 846.166 47.7608 850.899 47.8626C850.921 81.2167 851.039 114.571 850.932 147.925C846.08 148.047 841.25 148.607 836.474 149.503C836.776 115.569 836.247 81.6139 836.732 47.6896ZM897 -2.45359e-06C901.917 0.0610858 906.844 0.254552 911.76 0.529449C911.652 48.3615 911.933 96.214 911.674 144.056C906.779 144.138 901.874 144.494 897.022 145.013C896.828 96.6721 896.893 48.3208 897 -2.45359e-06Z" fill="#11100E"/>
</svg>
